999
dxflib 3.26.4.0
  0
SECTION
  2
HEADER
  9
$ACADVER
  1
AC1015
  9
$HANDSEED
  5
FFFF
  9
$DIMADEC
 70
0
  9
$DIMASZ
 40
2.5
  9
$DIMATFIT
 70
0
  9
$DIMAUNIT
 70
0
  9
$DIMAZIN
 70
2
  9
$DIMBLK
  1
0
  9
$DIMBLK1
  1
0
  9
$DIMBLK2
  1
0
  9
$DIMDEC
 70
4
  9
$DIMDLI
 40
5.0
  9
$DIMDSEP
 70
46
  9
$DIMEXE
 40
1.25
  9
$DIMEXO
 40
0.625
  9
$DIMGAP
 40
0.625
  9
$DIMLFAC
 40
1.0
  9
$DIMLUNIT
 70
2
  9
$DIMSCALE
 40
1.0
  9
$DIMTAD
 70
1
  9
$DIMTIH
 70
0
  9
$DIMTSZ
 40
0.0
  9
$DIMTXSTY
  7
STANDARD
  9
$DIMTXT
 40
2.5
  9
$DIMZIN
 70
8
  9
$DWGCODEPAGE
  3
ANSI_1252
  9
$INSUNITS
 70
0
  9
$LTSCALE
 40
1.0
  9
$MAXACTVP
 70
64
  9
$MEASUREMENT
 70
1
  9
$MIRRTEXT
 70
0
  9
$PDMODE
 70
0
  9
$PDSIZE
 40
0.0
  9
$PEXTMAX
 10
50.0
 20
50.0
 30
50.0
  9
$PEXTMIN
 10
0.0
 20
0.0
 30
0.0
  9
$TEXTSTYLE
  7
STANDARD
  0
ENDSEC
  0
SECTION
  2
TABLES
  0
TABLE
  2
VPORT
  5
8
100
AcDbSymbolTable
 70
1
  0
VPORT
  5
30
100
AcDbSymbolTableRecord
100
AcDbViewportTableRecord
  2
*Active
 70
0
 10
0.0
 20
0.0
 11
1.0
 21
1.0
 12
286.3055555555554861
 22
148.5
 13
0.0
 23
0.0
 14
10.0
 24
10.0
 15
10.0
 25
10.0
 16
0.0
 26
0.0
 36
1.0
 17
0.0
 27
0.0
 37
0.0
 40
297.0
 41
1.92798353909465
 42
50.0
 43
0.0
 44
0.0
 50
0.0
 51
0.0
 71
0
 72
100
 73
1
 74
3
 75
1
 76
1
 77
0
 78
0
281
0
 65
1
110
0.0
120
0.0
130
0.0
111
1.0
121
0.0
131
0.0
112
0.0
122
1.0
132
0.0
 79
0
146
0.0
  0
ENDTAB
  0
TABLE
  2
LTYPE
  5
5
100
AcDbSymbolTable
 70
41
  0
LTYPE
  5
16
100
AcDbSymbolTableRecord
100
AcDbLinetypeTableRecord
  2
CONTINUOUS
 70
0
  3
Solid line
 72
65
 73
0
 40
0.0
  0
LTYPE
  5
31
100
AcDbSymbolTableRecord
100
AcDbLinetypeTableRecord
  2
ACAD_ISO03W100
 70
0
  3
ISO dash space __    __    __    __    __    __
 72
65
 73
2
 40
30.0
 49
12.0
 74
0
 49
-18.0
 74
0
  0
LTYPE
  5
32
100
AcDbSymbolTableRecord
100
AcDbLinetypeTableRecord
  2
DIVIDE2
 70
0
  3
Divide (.5x) __..__..__..__..__..__..__..__.._
 72
65
 73
6
 40
15.8749999999999982
 49
6.3499999999999996
 74
0
 49
-3.125
 74
0
 49
0.1
 74
0
 49
-3.0750000000000002
 74
0
 49
0.1
 74
0
 49
-3.125
 74
0
  0
LTYPE
  5
33
100
AcDbSymbolTableRecord
100
AcDbLinetypeTableRecord
  2
ACAD_ISO06W100
 70
0
  3
ISO long-dash triple-dot ____ ... ____ ... ____
 72
65
 73
8
 40
36.0000000000000071
 49
24.0
 74
0
 49
-2.9500000000000002
 74
0
 49
0.1
 74
0
 49
-2.9000000000000004
 74
0
 49
0.1
 74
0
 49
-2.9000000000000004
 74
0
 49
0.1
 74
0
 49
-2.9500000000000002
 74
0
  0
LTYPE
  5
34
100
AcDbSymbolTableRecord
100
AcDbLinetypeTableRecord
  2
ACAD_ISO14W100
 70
0
  3
ISO dash triple-dot __ . . . __ . . . __ . . . _
 72
65
 73
8
 40
24.0000000000000036
 49
12.0
 74
0
 49
-2.9500000000000002
 74
0
 49
0.1
 74
0
 49
-2.9000000000000004
 74
0
 49
0.1
 74
0
 49
-2.9000000000000004
 74
0
 49
0.1
 74
0
 49
-2.9500000000000002
 74
0
  0
LTYPE
  5
35
100
AcDbSymbolTableRecord
100
AcDbLinetypeTableRecord
  2
CENTERX2
 70
0
  3
Center (2x) ________  __  ________  __  _____
 72
65
 73
4
 40
101.6000000000000085
 49
63.5
 74
0
 49
-12.6999999999999993
 74
0
 49
12.6999999999999993
 74
0
 49
-12.6999999999999993
 74
0
  0
LTYPE
  5
36
100
AcDbSymbolTableRecord
100
AcDbLinetypeTableRecord
  2
DASHDOT
 70
0
  3
Dash dot __ . __ . __ . __ . __ . __ . __ . __
 72
65
 73
4
 40
25.4000000000000021
 49
12.6999999999999993
 74
0
 49
-6.2999999999999998
 74
0
 49
0.1
 74
0
 49
-6.2999999999999998
 74
0
  0
LTYPE
  5
37
100
AcDbSymbolTableRecord
100
AcDbLinetypeTableRecord
  2
DASHDOTX2
 70
0
  3
Dash dot (2x) ____  .  ____  .  ____  .  ___
 72
65
 73
4
 40
50.7999999999999972
 49
25.3999999999999986
 74
0
 49
-12.6499999999999986
 74
0
 49
0.1
 74
0
 49
-12.6499999999999986
 74
0
  0
LTYPE
  5
38
100
AcDbSymbolTableRecord
100
AcDbLinetypeTableRecord
  2
DASHDOT2
 70
0
  3
Dash dot (.5x) _._._._._._._._._._._._._._._.
 72
65
 73
4
 40
12.6999999999999993
 49
6.3499999999999996
 74
0
 49
-3.125
 74
0
 49
0.1
 74
0
 49
-3.125
 74
0
  0
LTYPE
  5
39
100
AcDbSymbolTableRecord
100
AcDbLinetypeTableRecord
  2
DOT2
 70
0
  3
Dot (.5x) ........................................
 72
65
 73
2
 40
3.1749999999999998
 49
0.1
 74
0
 49
-3.0749999999999997
 74
0
  0
LTYPE
  5
3A
100
AcDbSymbolTableRecord
100
AcDbLinetypeTableRecord
  2
ACAD_ISO05W100
 70
0
  3
ISO long-dash double-dot ____ .. ____ .. ____ . 
 72
65
 73
6
 40
33.0000000000000071
 49
24.0
 74
0
 49
-2.9500000000000002
 74
0
 49
0.1
 74
0
 49
-2.9000000000000004
 74
0
 49
0.1
 74
0
 49
-2.9500000000000002
 74
0
  0
LTYPE
  5
14
100
AcDbSymbolTableRecord
100
AcDbLinetypeTableRecord
  2
BYBLOCK
 70
0
  3

 72
65
 73
0
 40
0.0
  0
LTYPE
  5
3B
100
AcDbSymbolTableRecord
100
AcDbLinetypeTableRecord
  2
HIDDEN
 70
0
  3
Hidden __ __ __ __ __ __ __ __ __ __ __ __ __ __
 72
65
 73
2
 40
9.5249999999999986
 49
6.3499999999999996
 74
0
 49
-3.1749999999999998
 74
0
  0
LTYPE
  5
3C
100
AcDbSymbolTableRecord
100
AcDbLinetypeTableRecord
  2
PHANTOM
 70
0
  3
Phantom ______  __  __  ______  __  __  ______ 
 72
65
 73
6
 40
63.5000000000000071
 49
31.75
 74
0
 49
-6.3499999999999996
 74
0
 49
6.3499999999999996
 74
0
 49
-6.3499999999999996
 74
0
 49
6.3499999999999996
 74
0
 49
-6.3499999999999996
 74
0
  0
LTYPE
  5
3D
100
AcDbSymbolTableRecord
100
AcDbLinetypeTableRecord
  2
HIDDEN2
 70
0
  3
Hidden (.5x) _ _ _ _ _ _ _ _ _ _ _ _ _ _ _ _ _ 
 72
65
 73
2
 40
4.7624999999999993
 49
3.1749999999999998
 74
0
 49
-1.5874999999999999
 74
0
  0
LTYPE
  5
3E
100
AcDbSymbolTableRecord
100
AcDbLinetypeTableRecord
  2
DOTX2
 70
0
  3
Dot (2x) .  .  .  .  .  .  .  .  .  .  .  .  .  .
 72
65
 73
2
 40
12.6999999999999993
 49
0.1
 74
0
 49
-12.5999999999999996
 74
0
  0
LTYPE
  5
3F
100
AcDbSymbolTableRecord
100
AcDbLinetypeTableRecord
  2
BORDER2
 70
0
  3
Border (.5x) __.__.__.__.__.__.__.__.__.__.__.
 72
65
 73
6
 40
22.2250000000000014
 49
6.3499999999999996
 74
0
 49
-3.1749999999999998
 74
0
 49
6.3499999999999996
 74
0
 49
-3.125
 74
0
 49
0.1
 74
0
 49
-3.125
 74
0
  0
LTYPE
  5
40
100
AcDbSymbolTableRecord
100
AcDbLinetypeTableRecord
  2
CENTER
 70
0
  3
Center ____ _ ____ _ ____ _ ____ _ ____ _ ____
 72
65
 73
4
 40
50.8000000000000043
 49
31.75
 74
0
 49
-6.3499999999999996
 74
0
 49
6.3499999999999996
 74
0
 49
-6.3499999999999996
 74
0
  0
LTYPE
  5
41
100
AcDbSymbolTableRecord
100
AcDbLinetypeTableRecord
  2
DASHED2
 70
0
  3
Dashed (.5x) _ _ _ _ _ _ _ _ _ _ _ _ _ _ _ _ _ 
 72
65
 73
2
 40
9.5249999999999986
 49
6.3499999999999996
 74
0
 49
-3.1749999999999998
 74
0
  0
LTYPE
  5
42
100
AcDbSymbolTableRecord
100
AcDbLinetypeTableRecord
  2
DIVIDEX2
 70
0
  3
Divide (2x) ________  .  .  ________  .  .  _
 72
65
 73
6
 40
63.5
 49
25.3999999999999986
 74
0
 49
-12.6499999999999986
 74
0
 49
0.1
 74
0
 49
-12.5999999999999979
 74
0
 49
0.1
 74
0
 49
-12.6499999999999986
 74
0
  0
LTYPE
  5
43
100
AcDbSymbolTableRecord
100
AcDbLinetypeTableRecord
  2
HIDDENX2
 70
0
  3
Hidden (2x) ____ ____ ____ ____ ____ ____ ____ 
 72
65
 73
2
 40
19.0499999999999972
 49
12.6999999999999993
 74
0
 49
-6.3499999999999996
 74
0
  0
LTYPE
  5
44
100
AcDbSymbolTableRecord
100
AcDbLinetypeTableRecord
  2
ACAD_ISO02W100
 70
0
  3
ISO dash __ __ __ __ __ __ __ __ __ __ __ __ __
 72
65
 73
2
 40
15.0
 49
12.0
 74
0
 49
-3.0
 74
0
  0
LTYPE
  5
45
100
AcDbSymbolTableRecord
100
AcDbLinetypeTableRecord
  2
ACAD_ISO04W100
 70
0
  3
ISO long-dash dot ____ . ____ . ____ . ____ . _
 72
65
 73
4
 40
30.0
 49
24.0
 74
0
 49
-2.9500000000000002
 74
0
 49
0.1
 74
0
 49
-2.9500000000000002
 74
0
  0
LTYPE
  5
46
100
AcDbSymbolTableRecord
100
AcDbLinetypeTableRecord
  2
ACAD_ISO13W100
 70
0
  3
ISO double-dash double-dot __ __ . . __ __ . . _
 72
65
 73
8
 40
36.0000000000000071
 49
12.0
 74
0
 49
-3.0
 74
0
 49
12.0
 74
0
 49
-2.9500000000000002
 74
0
 49
0.1
 74
0
 49
-2.9000000000000004
 74
0
 49
0.1
 74
0
 49
-2.9500000000000002
 74
0
  0
LTYPE
  5
47
100
AcDbSymbolTableRecord
100
AcDbLinetypeTableRecord
  2
PHANTOM2
 70
0
  3
Phantom (.5x) ___ _ _ ___ _ _ ___ _ _ ___ _ _
 72
65
 73
6
 40
31.7500000000000036
 49
15.875
 74
0
 49
-3.1749999999999998
 74
0
 49
3.1749999999999998
 74
0
 49
-3.1749999999999998
 74
0
 49
3.1749999999999998
 74
0
 49
-3.1749999999999998
 74
0
  0
LTYPE
  5
15
100
AcDbSymbolTableRecord
100
AcDbLinetypeTableRecord
  2
BYLAYER
 70
0
  3

 72
65
 73
0
 40
0.0
  0
LTYPE
  5
48
100
AcDbSymbolTableRecord
100
AcDbLinetypeTableRecord
  2
ACAD_ISO07W100
 70
0
  3
ISO dot . . . . . . . . . . . . . . . . . . . . 
 72
65
 73
2
 40
3.0
 49
0.1
 74
0
 49
-2.8999999999999999
 74
0
  0
LTYPE
  5
49
100
AcDbSymbolTableRecord
100
AcDbLinetypeTableRecord
  2
DASHEDX2
 70
0
  3
Dashed (2x) ____  ____  ____  ____  ____  ___
 72
65
 73
2
 40
38.0999999999999943
 49
25.3999999999999986
 74
0
 49
-12.6999999999999993
 74
0
  0
LTYPE
  5
4A
100
AcDbSymbolTableRecord
100
AcDbLinetypeTableRecord
  2
ACAD_ISO09W100
 70
0
  3
ISO long-dash double-short-dash ____ __ __ ____
 72
65
 73
6
 40
45.0
 49
24.0
 74
0
 49
-3.0
 74
0
 49
6.0
 74
0
 49
-3.0
 74
0
 49
6.0
 74
0
 49
-3.0
 74
0
  0
LTYPE
  5
4B
100
AcDbSymbolTableRecord
100
AcDbLinetypeTableRecord
  2
ACAD_ISO12W100
 70
0
  3
ISO dash double-dot __ . . __ . . __ . . __ . . 
 72
65
 73
6
 40
21.0
 49
12.0
 74
0
 49
-2.9500000000000002
 74
0
 49
0.1
 74
0
 49
-2.9000000000000004
 74
0
 49
0.1
 74
0
 49
-2.9500000000000002
 74
0
  0
LTYPE
  5
4C
100
AcDbSymbolTableRecord
100
AcDbLinetypeTableRecord
  2
ACAD_ISO08W100
 70
0
  3
ISO long-dash short-dash ____ __ ____ __ ____ _
 72
65
 73
4
 40
36.0
 49
24.0
 74
0
 49
-3.0
 74
0
 49
6.0
 74
0
 49
-3.0
 74
0
  0
LTYPE
  5
4D
100
AcDbSymbolTableRecord
100
AcDbLinetypeTableRecord
  2
DIVIDE
 70
0
  3
Divide ____ . . ____ . . ____ . . ____ . . ____
 72
65
 73
6
 40
31.7500000000000036
 49
12.6999999999999993
 74
0
 49
-6.2999999999999998
 74
0
 49
0.1
 74
0
 49
-6.25
 74
0
 49
0.1
 74
0
 49
-6.2999999999999998
 74
0
  0
LTYPE
  5
4E
100
AcDbSymbolTableRecord
100
AcDbLinetypeTableRecord
  2
DOT
 70
0
  3
Dot . . . . . . . . . . . . . . . . . . . . . . . .
 72
65
 73
2
 40
6.3499999999999996
 49
0.1
 74
0
 49
-6.25
 74
0
  0
LTYPE
  5
4F
100
AcDbSymbolTableRecord
100
AcDbLinetypeTableRecord
  2
ACAD_ISO15W100
 70
0
  3
ISO double-dash triple-dot __ __ . . . __ __ . .
 72
65
 73
10
 40
39.0000000000000071
 49
12.0
 74
0
 49
-3.0
 74
0
 49
12.0
 74
0
 49
-2.9500000000000002
 74
0
 49
0.1
 74
0
 49
-2.9000000000000004
 74
0
 49
0.1
 74
0
 49
-2.9000000000000004
 74
0
 49
0.1
 74
0
 49
-2.9500000000000002
 74
0
  0
LTYPE
  5
50
100
AcDbSymbolTableRecord
100
AcDbLinetypeTableRecord
  2
BORDER
 70
0
  3
Border __ __ . __ __ . __ __ . __ __ . __ __ .
 72
65
 73
6
 40
44.4499999999999957
 49
12.6999999999999993
 74
0
 49
-6.3499999999999996
 74
0
 49
12.6999999999999993
 74
0
 49
-6.2999999999999998
 74
0
 49
0.1
 74
0
 49
-6.2999999999999998
 74
0
  0
LTYPE
  5
51
100
AcDbSymbolTableRecord
100
AcDbLinetypeTableRecord
  2
DASHED
 70
0
  3
Dashed __ __ __ __ __ __ __ __ __ __ __ __ __ _
 72
65
 73
2
 40
19.0499999999999972
 49
12.6999999999999993
 74
0
 49
-6.3499999999999996
 74
0
  0
LTYPE
  5
52
100
AcDbSymbolTableRecord
100
AcDbLinetypeTableRecord
  2
ACAD_ISO10W100
 70
0
  3
ISO dash dot __ . __ . __ . __ . __ . __ . __ . 
 72
65
 73
4
 40
18.0
 49
12.0
 74
0
 49
-2.9500000000000002
 74
0
 49
0.1
 74
0
 49
-2.9500000000000002
 74
0
  0
LTYPE
  5
53
100
AcDbSymbolTableRecord
100
AcDbLinetypeTableRecord
  2
BORDERX2
 70
0
  3
Border (2x) ____  ____  .  ____  ____  .  ___
 72
65
 73
6
 40
88.8999999999999773
 49
25.3999999999999986
 74
0
 49
-12.6999999999999993
 74
0
 49
25.3999999999999986
 74
0
 49
-12.6499999999999986
 74
0
 49
0.1
 74
0
 49
-12.6499999999999986
 74
0
  0
LTYPE
  5
54
100
AcDbSymbolTableRecord
100
AcDbLinetypeTableRecord
  2
CENTER2
 70
0
  3
Center (.5x) ___ _ ___ _ ___ _ ___ _ ___ _ ___
 72
65
 73
4
 40
28.5750000000000028
 49
19.0500000000000007
 74
0
 49
-3.1749999999999998
 74
0
 49
3.1749999999999998
 74
0
 49
-3.1749999999999998
 74
0
  0
LTYPE
  5
55
100
AcDbSymbolTableRecord
100
AcDbLinetypeTableRecord
  2
ACAD_ISO11W100
 70
0
  3
ISO double-dash dot __ __ . __ __ . __ __ . __ _
 72
65
 73
6
 40
33.0
 49
12.0
 74
0
 49
-3.0
 74
0
 49
12.0
 74
0
 49
-2.9500000000000002
 74
0
 49
0.1
 74
0
 49
-2.9500000000000002
 74
0
  0
LTYPE
  5
56
100
AcDbSymbolTableRecord
100
AcDbLinetypeTableRecord
  2
PHANTOMX2
 70
0
  3
Phantom (2x) ____________    ____    ____   _
 72
65
 73
6
 40
127.0000000000000142
 49
63.5
 74
0
 49
-12.6999999999999993
 74
0
 49
12.6999999999999993
 74
0
 49
-12.6999999999999993
 74
0
 49
12.6999999999999993
 74
0
 49
-12.6999999999999993
 74
0
  0
ENDTAB
  0
TABLE
  2
LAYER
  5
2
100
AcDbSymbolTable
 70
3
  0
LAYER
  5
57
100
AcDbSymbolTableRecord
100
AcDbLayerTableRecord
  2
Sketch001
 70
0
 62
7
420
16777215
  6
CONTINUOUS
370
5
390
F
  0
LAYER
  5
10
100
AcDbSymbolTableRecord
100
AcDbLayerTableRecord
  2
0
 70
0
 62
7
420
16777215
  6
CONTINUOUS
370
5
390
F
  0
LAYER
  5
58
100
AcDbSymbolTableRecord
100
AcDbLayerTableRecord
  2
none
 70
0
 62
7
420
16777215
  6
CONTINUOUS
370
5
390
F
  0
ENDTAB
  0
TABLE
  2
STYLE
  5
3
100
AcDbSymbolTable
 70
1
  0
STYLE
  5
59
100
AcDbSymbolTableRecord
100
AcDbTextStyleTableRecord
  2
Standard
 70
0
 40
0.0
 41
1.0
 50
0.0
 71
0
 42
2.5
  3

  4

1001
ACAD
1000
txt
1071
0
  0
ENDTAB
  0
TABLE
  2
VIEW
  5
6
100
AcDbSymbolTable
 70
0
  0
ENDTAB
  0
TABLE
  2
UCS
  5
7
100
AcDbSymbolTable
 70
0
  0
ENDTAB
  0
TABLE
  2
APPID
  5
9
100
AcDbSymbolTable
 70
1
  0
APPID
  5
12
100
AcDbSymbolTableRecord
100
AcDbRegAppTableRecord
  2
ACAD
 70
0
  0
APPID
  5
5A
100
AcDbSymbolTableRecord
100
AcDbRegAppTableRecord
  2
QCAD
 70
0
  0
ENDTAB
  0
TABLE
  2
DIMSTYLE
  5
A
100
AcDbSymbolTable
 70
1
100
AcDbDimStyleTable
 71
0
  0
DIMSTYLE
105
27
100
AcDbSymbolTableRecord
100
AcDbDimStyleTableRecord
  2
Standard
 41
2.5
 42
0.625
 43
3.75
 44
1.25
 70
0
 73
0
 74
0
 77
1
 78
8
140
2.5
141
2.5
143
0.03937007874016
147
0.625
171
3
172
1
271
2
272
2
274
3
278
44
283
0
284
8
340
59
  0
ENDTAB
  0
TABLE
  2
BLOCK_RECORD
  5
1
100
AcDbSymbolTable
 70
1
  0
BLOCK_RECORD
  5
1F
100
AcDbSymbolTableRecord
100
AcDbBlockTableRecord
  2
*Model_Space
340
22
  0
BLOCK_RECORD
  5
1B
100
AcDbSymbolTableRecord
100
AcDbBlockTableRecord
  2
*Paper_Space
340
1E
  0
BLOCK_RECORD
  5
23
100
AcDbSymbolTableRecord
100
AcDbBlockTableRecord
  2
*Paper_Space0
340
26
  0
ENDTAB
  0
ENDSEC
  0
SECTION
  2
BLOCKS
  0
BLOCK
  5
20
100
AcDbEntity
  8
0
100
AcDbBlockBegin
  2
*Model_Space
 70
0
 10
0.0
 20
0.0
 30
0.0
  3
*Model_Space
  1

  0
ENDBLK
  5
21
100
AcDbEntity
  8
0
100
AcDbBlockEnd
  0
BLOCK
  5
1C
100
AcDbEntity
 67
1
  8
0
100
AcDbBlockBegin
  2
*Paper_Space
 70
0
 10
0.0
 20
0.0
 30
0.0
  3
*Paper_Space
  1

  0
ENDBLK
  5
1D
100
AcDbEntity
 67
1
  8
0
100
AcDbBlockEnd
  0
BLOCK
  5
24
100
AcDbEntity
  8
0
100
AcDbBlockBegin
  2
*Paper_Space0
 70
0
 10
0.0
 20
0.0
 30
0.0
  3
*Paper_Space0
  1

  0
ENDBLK
  5
25
100
AcDbEntity
  8
0
100
AcDbBlockEnd
  0
ENDSEC
  0
SECTION
  2
ENTITIES
  0
CIRCLE
  5
5B
100
AcDbEntity
  8
Sketch001
 62
256
370
-1
 48
1.0
  6
BYLAYER
100
AcDbCircle
 10
-160.0
 20
82.5
 30
0.0
 40
1.55
  0
CIRCLE
  5
5C
100
AcDbEntity
  8
Sketch001
 62
256
370
-1
 48
1.0
  6
BYLAYER
100
AcDbCircle
 10
-180.0
 20
-82.5
 30
0.0
 40
1.55
  0
CIRCLE
  5
5D
100
AcDbEntity
  8
Sketch001
 62
256
370
-1
 48
1.0
  6
BYLAYER
100
AcDbCircle
 10
160.0
 20
82.5
 30
0.0
 40
1.55
  0
CIRCLE
  5
5E
100
AcDbEntity
  8
Sketch001
 62
256
370
-1
 48
1.0
  6
BYLAYER
100
AcDbCircle
 10
180.0
 20
-82.5
 30
0.0
 40
1.55
  0
CIRCLE
  5
5F
100
AcDbEntity
  8
Sketch001
 62
256
370
-1
 48
1.0
  6
BYLAYER
100
AcDbCircle
 10
-180.0
 20
0.0
 30
0.0
 40
1.55
  0
CIRCLE
  5
60
100
AcDbEntity
  8
Sketch001
 62
256
370
-1
 48
1.0
  6
BYLAYER
100
AcDbCircle
 10
180.0
 20
0.0
 30
0.0
 40
1.55
  0
LINE
  5
61
100
AcDbEntity
  8
Sketch001
 62
256
370
-1
 48
1.0
  6
BYLAYER
100
AcDbLine
 10
-190.0
 20
91.5
 30
0.0
 11
-190.0
 21
-91.5
 31
0.0
  0
LINE
  5
62
100
AcDbEntity
  8
Sketch001
 62
256
370
-1
 48
1.0
  6
BYLAYER
100
AcDbLine
 10
-189.0
 20
-92.5
 30
0.0
 11
189.0
 21
-92.5
 31
0.0
  0
LINE
  5
63
100
AcDbEntity
  8
Sketch001
 62
256
370
-1
 48
1.0
  6
BYLAYER
100
AcDbLine
 10
190.0
 20
-91.5
 30
0.0
 11
190.0
 21
91.5
 31
0.0
  0
LINE
  5
64
100
AcDbEntity
  8
Sketch001
 62
256
370
-1
 48
1.0
  6
BYLAYER
100
AcDbLine
 10
189.0
 20
92.5
 30
0.0
 11
-189.0
 21
92.5
 31
0.0
  0
ARC
  5
65
100
AcDbEntity
  8
Sketch001
 62
256
370
-1
 48
1.0
  6
BYLAYER
100
AcDbCircle
 10
0.0000000000000015
 20
-48.5
 30
0.0
 40
15.0
100
AcDbArc
 50
134.4775121859299247
 51
285.5224878140700753
  0
ARC
  5
66
100
AcDbEntity
  8
Sketch001
 62
256
370
-1
 48
1.0
  6
BYLAYER
100
AcDbCircle
 10
0.0000000000000015
 20
-48.5
 30
0.0
 40
15.0
100
AcDbArc
 50
314.4775121859299247
 51
105.5224878140700611
  0
ARC
  5
67
100
AcDbEntity
  8
Sketch001
 62
256
370
-1
 48
1.0
  6
BYLAYER
100
AcDbCircle
 10
-145.0
 20
58.0
 30
0.0
 40
12.0
100
AcDbArc
 50
77.9202131393923594
 51
222.0797868606077259
  0
ARC
  5
68
100
AcDbEntity
  8
Sketch001
 62
256
370
-1
 48
1.0
  6
BYLAYER
100
AcDbCircle
 10
-145.0
 20
58.0
 30
0.0
 40
12.0
100
AcDbArc
 50
257.9202131393923878
 51
42.0797868606077117
  0
ARC
  5
69
100
AcDbEntity
  8
Sketch001
 62
256
370
-1
 48
1.0
  6
BYLAYER
100
AcDbCircle
 10
-116.0
 20
58.0
 30
0.0
 40
12.0
100
AcDbArc
 50
77.9202131393923594
 51
222.0797868606077259
  0
ARC
  5
6A
100
AcDbEntity
  8
Sketch001
 62
256
370
-1
 48
1.0
  6
BYLAYER
100
AcDbCircle
 10
-116.0
 20
58.0
 30
0.0
 40
12.0
100
AcDbArc
 50
257.9202131393923878
 51
42.0797868606077117
  0
ARC
  5
6B
100
AcDbEntity
  8
Sketch001
 62
256
370
-1
 48
1.0
  6
BYLAYER
100
AcDbCircle
 10
-87.0
 20
58.0
 30
0.0
 40
12.0
100
AcDbArc
 50
77.9202131393923594
 51
222.0797868606077259
  0
ARC
  5
6C
100
AcDbEntity
  8
Sketch001
 62
256
370
-1
 48
1.0
  6
BYLAYER
100
AcDbCircle
 10
-87.0
 20
58.0
 30
0.0
 40
12.0
100
AcDbArc
 50
257.9202131393923878
 51
42.0797868606077117
  0
ARC
  5
6D
100
AcDbEntity
  8
Sketch001
 62
256
370
-1
 48
1.0
  6
BYLAYER
100
AcDbCircle
 10
87.0
 20
58.0
 30
0.0
 40
12.0
100
AcDbArc
 50
77.9202131393923594
 51
222.0797868606077259
  0
ARC
  5
6E
100
AcDbEntity
  8
Sketch001
 62
256
370
-1
 48
1.0
  6
BYLAYER
100
AcDbCircle
 10
87.0
 20
58.0
 30
0.0
 40
12.0
100
AcDbArc
 50
257.9202131393923878
 51
42.0797868606077117
  0
ARC
  5
6F
100
AcDbEntity
  8
Sketch001
 62
256
370
-1
 48
1.0
  6
BYLAYER
100
AcDbCircle
 10
116.0
 20
58.0
 30
0.0
 40
12.0
100
AcDbArc
 50
77.9202131393923594
 51
222.0797868606077259
  0
ARC
  5
70
100
AcDbEntity
  8
Sketch001
 62
256
370
-1
 48
1.0
  6
BYLAYER
100
AcDbCircle
 10
116.0
 20
58.0
 30
0.0
 40
12.0
100
AcDbArc
 50
257.9202131393923878
 51
42.0797868606077117
  0
ARC
  5
71
100
AcDbEntity
  8
Sketch001
 62
256
370
-1
 48
1.0
  6
BYLAYER
100
AcDbCircle
 10
145.0
 20
58.0
 30
0.0
 40
12.0
100
AcDbArc
 50
77.9202131393923594
 51
222.0797868606077259
  0
ARC
  5
72
100
AcDbEntity
  8
Sketch001
 62
256
370
-1
 48
1.0
  6
BYLAYER
100
AcDbCircle
 10
145.0
 20
58.0
 30
0.0
 40
12.0
100
AcDbArc
 50
257.9202131393923878
 51
42.0797868606077117
  0
ARC
  5
73
100
AcDbEntity
  8
Sketch001
 62
256
370
-1
 48
1.0
  6
BYLAYER
100
AcDbCircle
 10
-72.5
 20
11.5
 30
0.0
 40
12.0
100
AcDbArc
 50
77.9202131393923594
 51
222.0797868606077259
  0
ARC
  5
74
100
AcDbEntity
  8
Sketch001
 62
256
370
-1
 48
1.0
  6
BYLAYER
100
AcDbCircle
 10
-72.5
 20
11.5
 30
0.0
 40
12.0
100
AcDbArc
 50
257.9202131393923878
 51
42.0797868606077117
  0
ARC
  5
75
100
AcDbEntity
  8
Sketch001
 62
256
370
-1
 48
1.0
  6
BYLAYER
100
AcDbCircle
 10
-43.5
 20
11.5
 30
0.0
 40
12.0
100
AcDbArc
 50
77.9202131393923594
 51
222.0797868606077259
  0
ARC
  5
76
100
AcDbEntity
  8
Sketch001
 62
256
370
-1
 48
1.0
  6
BYLAYER
100
AcDbCircle
 10
-43.5
 20
11.5
 30
0.0
 40
12.0
100
AcDbArc
 50
257.9202131393923878
 51
42.0797868606077117
  0
ARC
  5
77
100
AcDbEntity
  8
Sketch001
 62
256
370
-1
 48
1.0
  6
BYLAYER
100
AcDbCircle
 10
-14.5
 20
-2.5
 30
0.0
 40
12.0
100
AcDbArc
 50
77.9202131393923594
 51
222.0797868606077259
  0
ARC
  5
78
100
AcDbEntity
  8
Sketch001
 62
256
370
-1
 48
1.0
  6
BYLAYER
100
AcDbCircle
 10
-14.5
 20
-2.5
 30
0.0
 40
12.0
100
AcDbArc
 50
257.9202131393923878
 51
42.0797868606077117
  0
ARC
  5
79
100
AcDbEntity
  8
Sketch001
 62
256
370
-1
 48
1.0
  6
BYLAYER
100
AcDbCircle
 10
14.5
 20
12.0
 30
0.0
 40
12.0
100
AcDbArc
 50
77.9202131393923594
 51
222.0797868606077259
  0
ARC
  5
7A
100
AcDbEntity
  8
Sketch001
 62
256
370
-1
 48
1.0
  6
BYLAYER
100
AcDbCircle
 10
14.5
 20
12.0
 30
0.0
 40
12.0
100
AcDbArc
 50
257.9202131393923878
 51
42.0797868606077117
  0
ARC
  5
7B
100
AcDbEntity
  8
Sketch001
 62
256
370
-1
 48
1.0
  6
BYLAYER
100
AcDbCircle
 10
43.5
 20
26.0
 30
0.0
 40
12.0
100
AcDbArc
 50
77.9202131393923594
 51
222.0797868606077259
  0
ARC
  5
7C
100
AcDbEntity
  8
Sketch001
 62
256
370
-1
 48
1.0
  6
BYLAYER
100
AcDbCircle
 10
43.5
 20
26.0
 30
0.0
 40
12.0
100
AcDbArc
 50
257.9202131393923878
 51
42.0797868606077117
  0
ARC
  5
7D
100
AcDbEntity
  8
Sketch001
 62
256
370
-1
 48
1.0
  6
BYLAYER
100
AcDbCircle
 10
72.5
 20
26.0
 30
0.0
 40
12.0
100
AcDbArc
 50
77.9202131393923594
 51
222.0797868606077259
  0
ARC
  5
7E
100
AcDbEntity
  8
Sketch001
 62
256
370
-1
 48
1.0
  6
BYLAYER
100
AcDbCircle
 10
72.5
 20
26.0
 30
0.0
 40
12.0
100
AcDbArc
 50
257.9202131393923878
 51
42.0797868606077117
  0
ARC
  5
7F
100
AcDbEntity
  8
Sketch001
 62
256
370
-1
 48
1.0
  6
BYLAYER
100
AcDbCircle
 10
101.5
 20
19.0
 30
0.0
 40
12.0
100
AcDbArc
 50
77.9202131393923594
 51
222.0797868606077259
  0
ARC
  5
80
100
AcDbEntity
  8
Sketch001
 62
256
370
-1
 48
1.0
  6
BYLAYER
100
AcDbCircle
 10
101.5
 20
19.0
 30
0.0
 40
12.0
100
AcDbArc
 50
257.9202131393923878
 51
42.0797868606077117
  0
ARC
  5
81
100
AcDbEntity
  8
Sketch001
 62
256
370
-1
 48
1.0
  6
BYLAYER
100
AcDbCircle
 10
14.5
 20
-17.0
 30
0.0
 40
12.0
100
AcDbArc
 50
77.9202131393923594
 51
222.0797868606077259
  0
ARC
  5
82
100
AcDbEntity
  8
Sketch001
 62
256
370
-1
 48
1.0
  6
BYLAYER
100
AcDbCircle
 10
14.5
 20
-17.0
 30
0.0
 40
12.0
100
AcDbArc
 50
257.9202131393923878
 51
42.0797868606077117
  0
ARC
  5
83
100
AcDbEntity
  8
Sketch001
 62
256
370
-1
 48
1.0
  6
BYLAYER
100
AcDbCircle
 10
43.5
 20
-3.0
 30
0.0
 40
12.0
100
AcDbArc
 50
77.9202131393923594
 51
222.0797868606077259
  0
ARC
  5
84
100
AcDbEntity
  8
Sketch001
 62
256
370
-1
 48
1.0
  6
BYLAYER
100
AcDbCircle
 10
43.5
 20
-3.0
 30
0.0
 40
12.0
100
AcDbArc
 50
257.9202131393923878
 51
42.0797868606077117
  0
ARC
  5
85
100
AcDbEntity
  8
Sketch001
 62
256
370
-1
 48
1.0
  6
BYLAYER
100
AcDbCircle
 10
72.5
 20
-3.0
 30
0.0
 40
12.0
100
AcDbArc
 50
77.9202131393923594
 51
222.0797868606077259
  0
ARC
  5
86
100
AcDbEntity
  8
Sketch001
 62
256
370
-1
 48
1.0
  6
BYLAYER
100
AcDbCircle
 10
72.5
 20
-3.0
 30
0.0
 40
12.0
100
AcDbArc
 50
257.9202131393923878
 51
42.0797868606077117
  0
ARC
  5
87
100
AcDbEntity
  8
Sketch001
 62
256
370
-1
 48
1.0
  6
BYLAYER
100
AcDbCircle
 10
101.5
 20
-10.0
 30
0.0
 40
12.0
100
AcDbArc
 50
77.9202131393923594
 51
222.0797868606077259
  0
ARC
  5
88
100
AcDbEntity
  8
Sketch001
 62
256
370
-1
 48
1.0
  6
BYLAYER
100
AcDbCircle
 10
101.5
 20
-10.0
 30
0.0
 40
12.0
100
AcDbArc
 50
257.9202131393923878
 51
42.0797868606077117
  0
ARC
  5
89
100
AcDbEntity
  8
0
 62
256
370
-1
 48
1.0
  6
BYLAYER
100
AcDbCircle
 10
-189.0
 20
91.5
 30
0.0
 40
1.0
100
AcDbArc
 50
90.0
 51
180.0
  0
ARC
  5
8A
100
AcDbEntity
  8
0
 62
256
370
-1
 48
1.0
  6
BYLAYER
100
AcDbCircle
 10
189.0
 20
91.5
 30
0.0
 40
1.0
100
AcDbArc
 50
0.0
 51
90.0
  0
ARC
  5
8B
100
AcDbEntity
  8
0
 62
256
370
-1
 48
1.0
  6
BYLAYER
100
AcDbCircle
 10
189.0
 20
-91.5
 30
0.0
 40
1.0
100
AcDbArc
 50
270.0
 51
0.0
  0
ARC
  5
8C
100
AcDbEntity
  8
0
 62
256
370
-1
 48
1.0
  6
BYLAYER
100
AcDbCircle
 10
-189.0
 20
-91.5
 30
0.0
 40
1.0
100
AcDbArc
 50
180.0
 51
270.0
  0
LINE
  5
8D
100
AcDbEntity
  8
0
 62
256
370
-1
 48
1.0
  6
BYLAYER
100
AcDbLine
 10
-135.7679491924311321
 20
69.9903810567665801
 30
0.0
 11
-139.2320508075688963
 21
71.9903810567665943
 31
0.0
  0
LINE
  5
8E
100
AcDbEntity
  8
0
 62
256
370
-1
 48
1.0
  6
BYLAYER
100
AcDbLine
 10
-106.7679491924311321
 20
69.9903810567665801
 30
0.0
 11
-110.2320508075688963
 21
71.9903810567665943
 31
0.0
  0
LINE
  5
8F
100
AcDbEntity
  8
0
 62
256
370
-1
 48
1.0
  6
BYLAYER
100
AcDbLine
 10
-77.7679491924311321
 20
69.9903810567665801
 30
0.0
 11
-81.2320508075688963
 21
71.9903810567665943
 31
0.0
  0
LINE
  5
90
100
AcDbEntity
  8
0
 62
256
370
-1
 48
1.0
  6
BYLAYER
100
AcDbLine
 10
96.2320508075688679
 20
69.9903810567665801
 30
0.0
 11
92.7679491924311037
 21
71.9903810567665943
 31
0.0
  0
LINE
  5
91
100
AcDbEntity
  8
0
 62
256
370
-1
 48
1.0
  6
BYLAYER
100
AcDbLine
 10
125.2320508075688679
 20
69.9903810567665801
 30
0.0
 11
121.7679491924311037
 21
71.9903810567665943
 31
0.0
  0
LINE
  5
92
100
AcDbEntity
  8
0
 62
256
370
-1
 48
1.0
  6
BYLAYER
100
AcDbLine
 10
154.2320508075688679
 20
69.9903810567665801
 30
0.0
 11
150.7679491924311037
 21
71.9903810567665943
 31
0.0
  0
LINE
  5
93
100
AcDbEntity
  8
0
 62
256
370
-1
 48
1.0
  6
BYLAYER
100
AcDbLine
 10
-63.2679491924311321
 20
23.4903810567665801
 30
0.0
 11
-66.7320508075688963
 21
25.4903810567665943
 31
0.0
  0
LINE
  5
94
100
AcDbEntity
  8
0
 62
256
370
-1
 48
1.0
  6
BYLAYER
100
AcDbLine
 10
-34.2679491924311321
 20
23.4903810567665801
 30
0.0
 11
-37.7320508075688963
 21
25.4903810567665943
 31
0.0
  0
LINE
  5
95
100
AcDbEntity
  8
0
 62
256
370
-1
 48
1.0
  6
BYLAYER
100
AcDbLine
 10
-5.2679491924311321
 20
9.4903810567665801
 30
0.0
 11
-8.7320508075688963
 21
11.4903810567665943
 31
0.0
  0
LINE
  5
96
100
AcDbEntity
  8
0
 62
256
370
-1
 48
1.0
  6
BYLAYER
100
AcDbLine
 10
23.7320508075688679
 20
23.9903810567665801
 30
0.0
 11
20.2679491924311037
 21
25.9903810567665943
 31
0.0
  0
LINE
  5
97
100
AcDbEntity
  8
0
 62
256
370
-1
 48
1.0
  6
BYLAYER
100
AcDbLine
 10
52.7320508075688679
 20
37.9903810567665801
 30
0.0
 11
49.2679491924311037
 21
39.9903810567665943
 31
0.0
  0
LINE
  5
98
100
AcDbEntity
  8
0
 62
256
370
-1
 48
1.0
  6
BYLAYER
100
AcDbLine
 10
81.7320508075688679
 20
37.9903810567665801
 30
0.0
 11
78.2679491924311037
 21
39.9903810567665943
 31
0.0
  0
LINE
  5
99
100
AcDbEntity
  8
0
 62
256
370
-1
 48
1.0
  6
BYLAYER
100
AcDbLine
 10
110.7320508075688679
 20
30.9903810567665801
 30
0.0
 11
107.2679491924311037
 21
32.9903810567665943
 31
0.0
  0
LINE
  5
9A
100
AcDbEntity
  8
0
 62
256
370
-1
 48
1.0
  6
BYLAYER
100
AcDbLine
 10
23.7320508075688679
 20
-5.0096189432334199
 30
0.0
 11
20.2679491924311037
 21
-3.0096189432334057
 31
0.0
  0
LINE
  5
9B
100
AcDbEntity
  8
0
 62
256
370
-1
 48
1.0
  6
BYLAYER
100
AcDbLine
 10
52.7320508075688679
 20
8.9903810567665801
 30
0.0
 11
49.2679491924311037
 21
10.9903810567665943
 31
0.0
  0
LINE
  5
9C
100
AcDbEntity
  8
0
 62
256
370
-1
 48
1.0
  6
BYLAYER
100
AcDbLine
 10
81.7320508075688679
 20
8.9903810567665801
 30
0.0
 11
78.2679491924311037
 21
10.9903810567665943
 31
0.0
  0
LINE
  5
9D
100
AcDbEntity
  8
0
 62
256
370
-1
 48
1.0
  6
BYLAYER
100
AcDbLine
 10
110.7320508075688679
 20
1.9903810567665801
 30
0.0
 11
107.2679491924311037
 21
3.9903810567665943
 31
0.0
  0
LINE
  5
9E
100
AcDbEntity
  8
0
 62
256
370
-1
 48
1.0
  6
BYLAYER
100
AcDbLine
 10
-150.7679491924311606
 20
44.0096189432334413
 30
0.0
 11
-154.2320508075688679
 21
46.0096189432334128
 31
0.0
  0
LINE
  5
9F
100
AcDbEntity
  8
0
 62
256
370
-1
 48
1.0
  6
BYLAYER
100
AcDbLine
 10
-121.7679491924311606
 20
44.0096189432334413
 30
0.0
 11
-125.2320508075688679
 21
46.0096189432334128
 31
0.0
  0
LINE
  5
A0
100
AcDbEntity
  8
0
 62
256
370
-1
 48
1.0
  6
BYLAYER
100
AcDbLine
 10
-92.7679491924311606
 20
44.0096189432334413
 30
0.0
 11
-96.2320508075688679
 21
46.0096189432334128
 31
0.0
  0
LINE
  5
A1
100
AcDbEntity
  8
0
 62
256
370
-1
 48
1.0
  6
BYLAYER
100
AcDbLine
 10
81.2320508075688394
 20
44.0096189432334413
 30
0.0
 11
77.7679491924311321
 21
46.0096189432334128
 31
0.0
  0
LINE
  5
A2
100
AcDbEntity
  8
0
 62
256
370
-1
 48
1.0
  6
BYLAYER
100
AcDbLine
 10
110.2320508075688394
 20
44.0096189432334413
 30
0.0
 11
106.7679491924311321
 21
46.0096189432334128
 31
0.0
  0
LINE
  5
A3
100
AcDbEntity
  8
0
 62
256
370
-1
 48
1.0
  6
BYLAYER
100
AcDbLine
 10
139.2320508075688394
 20
44.0096189432334413
 30
0.0
 11
135.7679491924311321
 21
46.0096189432334128
 31
0.0
  0
LINE
  5
A4
100
AcDbEntity
  8
0
 62
256
370
-1
 48
1.0
  6
BYLAYER
100
AcDbLine
 10
-78.2679491924311606
 20
-2.4903810567665587
 30
0.0
 11
-81.7320508075688679
 21
-0.4903810567665872
 31
0.0
  0
LINE
  5
A5
100
AcDbEntity
  8
0
 62
256
370
-1
 48
1.0
  6
BYLAYER
100
AcDbLine
 10
-49.2679491924311606
 20
-2.4903810567665587
 30
0.0
 11
-52.7320508075688679
 21
-0.4903810567665872
 31
0.0
  0
LINE
  5
A6
100
AcDbEntity
  8
0
 62
256
370
-1
 48
1.0
  6
BYLAYER
100
AcDbLine
 10
-20.2679491924311606
 20
-16.4903810567665587
 30
0.0
 11
-23.7320508075688679
 21
-14.4903810567665872
 31
0.0
  0
LINE
  5
A7
100
AcDbEntity
  8
0
 62
256
370
-1
 48
1.0
  6
BYLAYER
100
AcDbLine
 10
8.7320508075688394
 20
-1.9903810567665587
 30
0.0
 11
5.2679491924311321
 21
0.0096189432334128
 31
0.0
  0
LINE
  5
A8
100
AcDbEntity
  8
0
 62
256
370
-1
 48
1.0
  6
BYLAYER
100
AcDbLine
 10
37.7320508075688394
 20
12.0096189432334413
 30
0.0
 11
34.2679491924311321
 21
14.0096189432334128
 31
0.0
  0
LINE
  5
A9
100
AcDbEntity
  8
0
 62
256
370
-1
 48
1.0
  6
BYLAYER
100
AcDbLine
 10
66.7320508075688394
 20
12.0096189432334413
 30
0.0
 11
63.2679491924311321
 21
14.0096189432334128
 31
0.0
  0
LINE
  5
AA
100
AcDbEntity
  8
0
 62
256
370
-1
 48
1.0
  6
BYLAYER
100
AcDbLine
 10
95.7320508075688394
 20
5.0096189432334413
 30
0.0
 11
92.2679491924311321
 21
7.0096189432334128
 31
0.0
  0
LINE
  5
AB
100
AcDbEntity
  8
0
 62
256
370
-1
 48
1.0
  6
BYLAYER
100
AcDbLine
 10
8.7320508075688394
 20
-30.9903810567665587
 30
0.0
 11
5.2679491924311321
 21
-28.9903810567665872
 31
0.0
  0
LINE
  5
AC
100
AcDbEntity
  8
0
 62
256
370
-1
 48
1.0
  6
BYLAYER
100
AcDbLine
 10
37.7320508075688394
 20
-16.9903810567665587
 30
0.0
 11
34.2679491924311321
 21
-14.9903810567665872
 31
0.0
  0
LINE
  5
AD
100
AcDbEntity
  8
0
 62
256
370
-1
 48
1.0
  6
BYLAYER
100
AcDbLine
 10
66.7320508075688394
 20
-16.9903810567665587
 30
0.0
 11
63.2679491924311321
 21
-14.9903810567665872
 31
0.0
  0
LINE
  5
AE
100
AcDbEntity
  8
0
 62
256
370
-1
 48
1.0
  6
BYLAYER
100
AcDbLine
 10
95.7320508075688394
 20
-23.9903810567665587
 30
0.0
 11
92.2679491924311321
 21
-21.9903810567665872
 31
0.0
  0
LINE
  5
AF
100
AcDbEntity
  8
0
 62
256
370
-1
 48
1.0
  6
BYLAYER
100
AcDbLine
 10
-154.598076211353316
 20
47.3756443470178539
 30
0.0
 11
-153.7827346497797976
 21
48.7878573571857288
 31
0.0
  0
LINE
  5
B0
100
AcDbEntity
  8
0
 62
256
370
-1
 48
1.0
  6
BYLAYER
100
AcDbLine
 10
-141.4134177729268345
 20
70.2121426428142712
 30
0.0
 11
-140.598076211353316
 21
71.6243556529821319
 31
0.0
  0
LINE
  5
B1
100
AcDbEntity
  8
0
 62
256
370
-1
 48
1.0
  6
BYLAYER
100
AcDbLine
 10
-125.598076211353316
 20
47.3756443470178539
 30
0.0
 11
-124.7827346497797976
 21
48.7878573571857288
 31
0.0
  0
LINE
  5
B2
100
AcDbEntity
  8
0
 62
256
370
-1
 48
1.0
  6
BYLAYER
100
AcDbLine
 10
-112.4134177729268345
 20
70.2121426428142712
 30
0.0
 11
-111.598076211353316
 21
71.6243556529821319
 31
0.0
  0
LINE
  5
B3
100
AcDbEntity
  8
0
 62
256
370
-1
 48
1.0
  6
BYLAYER
100
AcDbLine
 10
-96.598076211353316
 20
47.3756443470178539
 30
0.0
 11
-95.7827346497797976
 21
48.7878573571857288
 31
0.0
  0
LINE
  5
B4
100
AcDbEntity
  8
0
 62
256
370
-1
 48
1.0
  6
BYLAYER
100
AcDbLine
 10
-83.4134177729268345
 20
70.2121426428142712
 30
0.0
 11
-82.598076211353316
 21
71.6243556529821319
 31
0.0
  0
LINE
  5
B5
100
AcDbEntity
  8
0
 62
256
370
-1
 48
1.0
  6
BYLAYER
100
AcDbLine
 10
77.401923788646684
 20
47.3756443470178539
 30
0.0
 11
78.2172653502202024
 21
48.7878573571857288
 31
0.0
  0
LINE
  5
B6
100
AcDbEntity
  8
0
 62
256
370
-1
 48
1.0
  6
BYLAYER
100
AcDbLine
 10
90.5865822270731655
 20
70.2121426428142712
 30
0.0
 11
91.401923788646684
 21
71.6243556529821319
 31
0.0
  0
LINE
  5
B7
100
AcDbEntity
  8
0
 62
256
370
-1
 48
1.0
  6
BYLAYER
100
AcDbLine
 10
106.401923788646684
 20
47.3756443470178539
 30
0.0
 11
107.2172653502202024
 21
48.7878573571857288
 31
0.0
  0
LINE
  5
B8
100
AcDbEntity
  8
0
 62
256
370
-1
 48
1.0
  6
BYLAYER
100
AcDbLine
 10
119.5865822270731655
 20
70.2121426428142712
 30
0.0
 11
120.401923788646684
 21
71.6243556529821319
 31
0.0
  0
LINE
  5
B9
100
AcDbEntity
  8
0
 62
256
370
-1
 48
1.0
  6
BYLAYER
100
AcDbLine
 10
135.401923788646684
 20
47.3756443470178539
 30
0.0
 11
136.2172653502202024
 21
48.7878573571857288
 31
0.0
  0
LINE
  5
BA
100
AcDbEntity
  8
0
 62
256
370
-1
 48
1.0
  6
BYLAYER
100
AcDbLine
 10
148.5865822270731655
 20
70.2121426428142712
 30
0.0
 11
149.401923788646684
 21
71.6243556529821319
 31
0.0
  0
LINE
  5
BB
100
AcDbEntity
  8
0
 62
256
370
-1
 48
1.0
  6
BYLAYER
100
AcDbLine
 10
-82.098076211353316
 20
0.8756443470178539
 30
0.0
 11
-81.2827346497797976
 21
2.2878573571857288
 31
0.0
  0
LINE
  5
BC
100
AcDbEntity
  8
0
 62
256
370
-1
 48
1.0
  6
BYLAYER
100
AcDbLine
 10
-68.9134177729268345
 20
23.7121426428142712
 30
0.0
 11
-68.098076211353316
 21
25.1243556529821319
 31
0.0
  0
LINE
  5
BD
100
AcDbEntity
  8
0
 62
256
370
-1
 48
1.0
  6
BYLAYER
100
AcDbLine
 10
-53.098076211353316
 20
0.8756443470178539
 30
0.0
 11
-52.2827346497797976
 21
2.2878573571857288
 31
0.0
  0
LINE
  5
BE
100
AcDbEntity
  8
0
 62
256
370
-1
 48
1.0
  6
BYLAYER
100
AcDbLine
 10
-39.9134177729268345
 20
23.7121426428142712
 30
0.0
 11
-39.098076211353316
 21
25.1243556529821319
 31
0.0
  0
LINE
  5
BF
100
AcDbEntity
  8
0
 62
256
370
-1
 48
1.0
  6
BYLAYER
100
AcDbLine
 10
-24.098076211353316
 20
-13.1243556529821461
 30
0.0
 11
-23.2827346497797976
 21
-11.7121426428142712
 31
0.0
  0
LINE
  5
C0
100
AcDbEntity
  8
0
 62
256
370
-1
 48
1.0
  6
BYLAYER
100
AcDbLine
 10
-10.9134177729268345
 20
9.7121426428142712
 30
0.0
 11
-10.098076211353316
 21
11.1243556529821319
 31
0.0
  0
LINE
  5
C1
100
AcDbEntity
  8
0
 62
256
370
-1
 48
1.0
  6
BYLAYER
100
AcDbLine
 10
4.901923788646684
 20
1.3756443470178539
 30
0.0
 11
5.7172653502202024
 21
2.7878573571857288
 31
0.0
  0
LINE
  5
C2
100
AcDbEntity
  8
0
 62
256
370
-1
 48
1.0
  6
BYLAYER
100
AcDbLine
 10
18.0865822270731655
 20
24.2121426428142712
 30
0.0
 11
18.901923788646684
 21
25.6243556529821319
 31
0.0
  0
LINE
  5
C3
100
AcDbEntity
  8
0
 62
256
370
-1
 48
1.0
  6
BYLAYER
100
AcDbLine
 10
33.901923788646684
 20
15.3756443470178539
 30
0.0
 11
34.7172653502202024
 21
16.7878573571857288
 31
0.0
  0
LINE
  5
C4
100
AcDbEntity
  8
0
 62
256
370
-1
 48
1.0
  6
BYLAYER
100
AcDbLine
 10
47.0865822270731655
 20
38.2121426428142712
 30
0.0
 11
47.901923788646684
 21
39.6243556529821319
 31
0.0
  0
LINE
  5
C5
100
AcDbEntity
  8
0
 62
256
370
-1
 48
1.0
  6
BYLAYER
100
AcDbLine
 10
62.901923788646684
 20
15.3756443470178539
 30
0.0
 11
63.7172653502202024
 21
16.7878573571857288
 31
0.0
  0
LINE
  5
C6
100
AcDbEntity
  8
0
 62
256
370
-1
 48
1.0
  6
BYLAYER
100
AcDbLine
 10
76.0865822270731655
 20
38.2121426428142712
 30
0.0
 11
76.901923788646684
 21
39.6243556529821319
 31
0.0
  0
LINE
  5
C7
100
AcDbEntity
  8
0
 62
256
370
-1
 48
1.0
  6
BYLAYER
100
AcDbLine
 10
91.901923788646684
 20
8.3756443470178539
 30
0.0
 11
92.7172653502202024
 21
9.7878573571857288
 31
0.0
  0
LINE
  5
C8
100
AcDbEntity
  8
0
 62
256
370
-1
 48
1.0
  6
BYLAYER
100
AcDbLine
 10
105.0865822270731655
 20
31.2121426428142712
 30
0.0
 11
105.901923788646684
 21
32.6243556529821319
 31
0.0
  0
LINE
  5
C9
100
AcDbEntity
  8
0
 62
256
370
-1
 48
1.0
  6
BYLAYER
100
AcDbLine
 10
4.901923788646684
 20
-27.6243556529821461
 30
0.0
 11
5.7172653502202024
 21
-26.2121426428142712
 31
0.0
  0
LINE
  5
CA
100
AcDbEntity
  8
0
 62
256
370
-1
 48
1.0
  6
BYLAYER
100
AcDbLine
 10
18.0865822270731655
 20
-4.7878573571857288
 30
0.0
 11
18.901923788646684
 21
-3.3756443470178681
 31
0.0
  0
LINE
  5
CB
100
AcDbEntity
  8
0
 62
256
370
-1
 48
1.0
  6
BYLAYER
100
AcDbLine
 10
33.901923788646684
 20
-13.6243556529821461
 30
0.0
 11
34.7172653502202024
 21
-12.2121426428142712
 31
0.0
  0
LINE
  5
CC
100
AcDbEntity
  8
0
 62
256
370
-1
 48
1.0
  6
BYLAYER
100
AcDbLine
 10
47.0865822270731655
 20
9.2121426428142712
 30
0.0
 11
47.901923788646684
 21
10.6243556529821319
 31
0.0
  0
LINE
  5
CD
100
AcDbEntity
  8
0
 62
256
370
-1
 48
1.0
  6
BYLAYER
100
AcDbLine
 10
62.901923788646684
 20
-13.6243556529821461
 30
0.0
 11
63.7172653502202024
 21
-12.2121426428142712
 31
0.0
  0
LINE
  5
CE
100
AcDbEntity
  8
0
 62
256
370
-1
 48
1.0
  6
BYLAYER
100
AcDbLine
 10
76.0865822270731655
 20
9.2121426428142712
 30
0.0
 11
76.901923788646684
 21
10.6243556529821319
 31
0.0
  0
LINE
  5
CF
100
AcDbEntity
  8
0
 62
256
370
-1
 48
1.0
  6
BYLAYER
100
AcDbLine
 10
91.901923788646684
 20
-20.6243556529821461
 30
0.0
 11
92.7172653502202024
 21
-19.2121426428142712
 31
0.0
  0
LINE
  5
D0
100
AcDbEntity
  8
0
 62
256
370
-1
 48
1.0
  6
BYLAYER
100
AcDbLine
 10
105.0865822270731655
 20
2.2121426428142712
 30
0.0
 11
105.901923788646684
 21
3.6243556529821319
 31
0.0
  0
LINE
  5
D1
100
AcDbEntity
  8
0
 62
256
370
-1
 48
1.0
  6
BYLAYER
100
AcDbLine
 10
-135.401923788646684
 20
68.6243556529821461
 30
0.0
 11
-136.2172653502202024
 21
67.2121426428142712
 31
0.0
  0
LINE
  5
D2
100
AcDbEntity
  8
0
 62
256
370
-1
 48
1.0
  6
BYLAYER
100
AcDbLine
 10
-148.5865822270731655
 20
45.7878573571857288
 30
0.0
 11
-149.401923788646684
 21
44.3756443470178539
 31
0.0
  0
LINE
  5
D3
100
AcDbEntity
  8
0
 62
256
370
-1
 48
1.0
  6
BYLAYER
100
AcDbLine
 10
-106.401923788646684
 20
68.6243556529821461
 30
0.0
 11
-107.2172653502202024
 21
67.2121426428142712
 31
0.0
  0
LINE
  5
D4
100
AcDbEntity
  8
0
 62
256
370
-1
 48
1.0
  6
BYLAYER
100
AcDbLine
 10
-119.5865822270731655
 20
45.7878573571857288
 30
0.0
 11
-120.401923788646684
 21
44.3756443470178539
 31
0.0
  0
LINE
  5
D5
100
AcDbEntity
  8
0
 62
256
370
-1
 48
1.0
  6
BYLAYER
100
AcDbLine
 10
-77.401923788646684
 20
68.6243556529821461
 30
0.0
 11
-78.2172653502202024
 21
67.2121426428142712
 31
0.0
  0
LINE
  5
D6
100
AcDbEntity
  8
0
 62
256
370
-1
 48
1.0
  6
BYLAYER
100
AcDbLine
 10
-90.5865822270731655
 20
45.7878573571857288
 30
0.0
 11
-91.401923788646684
 21
44.3756443470178539
 31
0.0
  0
LINE
  5
D7
100
AcDbEntity
  8
0
 62
256
370
-1
 48
1.0
  6
BYLAYER
100
AcDbLine
 10
96.598076211353316
 20
68.6243556529821461
 30
0.0
 11
95.7827346497797976
 21
67.2121426428142712
 31
0.0
  0
LINE
  5
D8
100
AcDbEntity
  8
0
 62
256
370
-1
 48
1.0
  6
BYLAYER
100
AcDbLine
 10
83.4134177729268345
 20
45.7878573571857288
 30
0.0
 11
82.598076211353316
 21
44.3756443470178539
 31
0.0
  0
LINE
  5
D9
100
AcDbEntity
  8
0
 62
256
370
-1
 48
1.0
  6
BYLAYER
100
AcDbLine
 10
125.598076211353316
 20
68.6243556529821461
 30
0.0
 11
124.7827346497797976
 21
67.2121426428142712
 31
0.0
  0
LINE
  5
DA
100
AcDbEntity
  8
0
 62
256
370
-1
 48
1.0
  6
BYLAYER
100
AcDbLine
 10
112.4134177729268345
 20
45.7878573571857288
 30
0.0
 11
111.598076211353316
 21
44.3756443470178539
 31
0.0
  0
LINE
  5
DB
100
AcDbEntity
  8
0
 62
256
370
-1
 48
1.0
  6
BYLAYER
100
AcDbLine
 10
154.598076211353316
 20
68.6243556529821461
 30
0.0
 11
153.7827346497797976
 21
67.2121426428142712
 31
0.0
  0
LINE
  5
DC
100
AcDbEntity
  8
0
 62
256
370
-1
 48
1.0
  6
BYLAYER
100
AcDbLine
 10
141.4134177729268345
 20
45.7878573571857288
 30
0.0
 11
140.598076211353316
 21
44.3756443470178539
 31
0.0
  0
LINE
  5
DD
100
AcDbEntity
  8
0
 62
256
370
-1
 48
1.0
  6
BYLAYER
100
AcDbLine
 10
-62.901923788646684
 20
22.1243556529821461
 30
0.0
 11
-63.7172653502202024
 21
20.7121426428142712
 31
0.0
  0
LINE
  5
DE
100
AcDbEntity
  8
0
 62
256
370
-1
 48
1.0
  6
BYLAYER
100
AcDbLine
 10
-76.0865822270731655
 20
-0.7121426428142712
 30
0.0
 11
-76.901923788646684
 21
-2.1243556529821461
 31
0.0
  0
LINE
  5
DF
100
AcDbEntity
  8
0
 62
256
370
-1
 48
1.0
  6
BYLAYER
100
AcDbLine
 10
-33.901923788646684
 20
22.1243556529821461
 30
0.0
 11
-34.7172653502202024
 21
20.7121426428142712
 31
0.0
  0
LINE
  5
E0
100
AcDbEntity
  8
0
 62
256
370
-1
 48
1.0
  6
BYLAYER
100
AcDbLine
 10
-47.0865822270731655
 20
-0.7121426428142712
 30
0.0
 11
-47.901923788646684
 21
-2.1243556529821461
 31
0.0
  0
LINE
  5
E1
100
AcDbEntity
  8
0
 62
256
370
-1
 48
1.0
  6
BYLAYER
100
AcDbLine
 10
-4.901923788646684
 20
8.1243556529821461
 30
0.0
 11
-5.7172653502202024
 21
6.7121426428142712
 31
0.0
  0
LINE
  5
E2
100
AcDbEntity
  8
0
 62
256
370
-1
 48
1.0
  6
BYLAYER
100
AcDbLine
 10
-18.0865822270731655
 20
-14.7121426428142712
 30
0.0
 11
-18.901923788646684
 21
-16.1243556529821461
 31
0.0
  0
LINE
  5
E3
100
AcDbEntity
  8
0
 62
256
370
-1
 48
1.0
  6
BYLAYER
100
AcDbLine
 10
24.098076211353316
 20
22.6243556529821461
 30
0.0
 11
23.2827346497797976
 21
21.2121426428142712
 31
0.0
  0
LINE
  5
E4
100
AcDbEntity
  8
0
 62
256
370
-1
 48
1.0
  6
BYLAYER
100
AcDbLine
 10
10.9134177729268345
 20
-0.2121426428142712
 30
0.0
 11
10.098076211353316
 21
-1.6243556529821461
 31
0.0
  0
LINE
  5
E5
100
AcDbEntity
  8
0
 62
256
370
-1
 48
1.0
  6
BYLAYER
100
AcDbLine
 10
53.098076211353316
 20
36.6243556529821461
 30
0.0
 11
52.2827346497797976
 21
35.2121426428142712
 31
0.0
  0
LINE
  5
E6
100
AcDbEntity
  8
0
 62
256
370
-1
 48
1.0
  6
BYLAYER
100
AcDbLine
 10
39.9134177729268345
 20
13.7878573571857288
 30
0.0
 11
39.098076211353316
 21
12.3756443470178539
 31
0.0
  0
LINE
  5
E7
100
AcDbEntity
  8
0
 62
256
370
-1
 48
1.0
  6
BYLAYER
100
AcDbLine
 10
82.098076211353316
 20
36.6243556529821461
 30
0.0
 11
81.2827346497797976
 21
35.2121426428142712
 31
0.0
  0
LINE
  5
E8
100
AcDbEntity
  8
0
 62
256
370
-1
 48
1.0
  6
BYLAYER
100
AcDbLine
 10
68.9134177729268345
 20
13.7878573571857288
 30
0.0
 11
68.098076211353316
 21
12.3756443470178539
 31
0.0
  0
LINE
  5
E9
100
AcDbEntity
  8
0
 62
256
370
-1
 48
1.0
  6
BYLAYER
100
AcDbLine
 10
111.098076211353316
 20
29.6243556529821461
 30
0.0
 11
110.2827346497797976
 21
28.2121426428142712
 31
0.0
  0
LINE
  5
EA
100
AcDbEntity
  8
0
 62
256
370
-1
 48
1.0
  6
BYLAYER
100
AcDbLine
 10
97.9134177729268345
 20
6.7878573571857288
 30
0.0
 11
97.098076211353316
 21
5.3756443470178539
 31
0.0
  0
LINE
  5
EB
100
AcDbEntity
  8
0
 62
256
370
-1
 48
1.0
  6
BYLAYER
100
AcDbLine
 10
24.098076211353316
 20
-6.3756443470178539
 30
0.0
 11
23.2827346497797976
 21
-7.7878573571857288
 31
0.0
  0
LINE
  5
EC
100
AcDbEntity
  8
0
 62
256
370
-1
 48
1.0
  6
BYLAYER
100
AcDbLine
 10
10.9134177729268345
 20
-29.2121426428142712
 30
0.0
 11
10.098076211353316
 21
-30.6243556529821461
 31
0.0
  0
LINE
  5
ED
100
AcDbEntity
  8
0
 62
256
370
-1
 48
1.0
  6
BYLAYER
100
AcDbLine
 10
53.098076211353316
 20
7.6243556529821461
 30
0.0
 11
52.2827346497797976
 21
6.2121426428142712
 31
0.0
  0
LINE
  5
EE
100
AcDbEntity
  8
0
 62
256
370
-1
 48
1.0
  6
BYLAYER
100
AcDbLine
 10
39.9134177729268345
 20
-15.2121426428142712
 30
0.0
 11
39.098076211353316
 21
-16.6243556529821461
 31
0.0
  0
LINE
  5
EF
100
AcDbEntity
  8
0
 62
256
370
-1
 48
1.0
  6
BYLAYER
100
AcDbLine
 10
82.098076211353316
 20
7.6243556529821461
 30
0.0
 11
81.2827346497797976
 21
6.2121426428142712
 31
0.0
  0
LINE
  5
F0
100
AcDbEntity
  8
0
 62
256
370
-1
 48
1.0
  6
BYLAYER
100
AcDbLine
 10
68.9134177729268345
 20
-15.2121426428142712
 30
0.0
 11
68.098076211353316
 21
-16.6243556529821461
 31
0.0
  0
LINE
  5
F1
100
AcDbEntity
  8
0
 62
256
370
-1
 48
1.0
  6
BYLAYER
100
AcDbLine
 10
111.098076211353316
 20
0.6243556529821461
 30
0.0
 11
110.2827346497797976
 21
-0.7878573571857288
 31
0.0
  0
LINE
  5
F2
100
AcDbEntity
  8
0
 62
256
370
-1
 48
1.0
  6
BYLAYER
100
AcDbLine
 10
97.9134177729268345
 20
-22.2121426428142712
 30
0.0
 11
97.098076211353316
 21
-23.6243556529821461
 31
0.0
  0
ARC
  5
F3
100
AcDbEntity
  8
0
 62
256
370
-1
 48
1.0
  6
BYLAYER
100
AcDbCircle
 10
-142.2794431767112826
 20
70.7121426428142854
 30
0.0
 40
1.0
100
AcDbArc
 50
257.9202131393926152
 51
329.9999999999996021
  0
ARC
  5
F4
100
AcDbEntity
  8
0
 62
256
370
-1
 48
1.0
  6
BYLAYER
100
AcDbCircle
 10
-113.2794431767112826
 20
70.7121426428142854
 30
0.0
 40
1.0
100
AcDbArc
 50
257.9202131393926152
 51
329.9999999999996021
  0
ARC
  5
F5
100
AcDbEntity
  8
0
 62
256
370
-1
 48
1.0
  6
BYLAYER
100
AcDbCircle
 10
-84.2794431767112826
 20
70.7121426428142854
 30
0.0
 40
1.0
100
AcDbArc
 50
257.9202131393926152
 51
329.9999999999996021
  0
ARC
  5
F6
100
AcDbEntity
  8
0
 62
256
370
-1
 48
1.0
  6
BYLAYER
100
AcDbCircle
 10
89.7205568232887174
 20
70.7121426428142854
 30
0.0
 40
1.0
100
AcDbArc
 50
257.9202131393926152
 51
329.9999999999996021
  0
ARC
  5
F7
100
AcDbEntity
  8
0
 62
256
370
-1
 48
1.0
  6
BYLAYER
100
AcDbCircle
 10
118.7205568232887174
 20
70.7121426428142854
 30
0.0
 40
1.0
100
AcDbArc
 50
257.9202131393926152
 51
329.9999999999996021
  0
ARC
  5
F8
100
AcDbEntity
  8
0
 62
256
370
-1
 48
1.0
  6
BYLAYER
100
AcDbCircle
 10
147.7205568232887174
 20
70.7121426428142854
 30
0.0
 40
1.0
100
AcDbArc
 50
257.9202131393926152
 51
329.9999999999996021
  0
ARC
  5
F9
100
AcDbEntity
  8
0
 62
256
370
-1
 48
1.0
  6
BYLAYER
100
AcDbCircle
 10
-69.7794431767112826
 20
24.2121426428142854
 30
0.0
 40
1.0
100
AcDbArc
 50
257.9202131393926152
 51
329.9999999999996021
  0
ARC
  5
FA
100
AcDbEntity
  8
0
 62
256
370
-1
 48
1.0
  6
BYLAYER
100
AcDbCircle
 10
-40.7794431767112826
 20
24.2121426428142854
 30
0.0
 40
1.0
100
AcDbArc
 50
257.9202131393926152
 51
329.9999999999996021
  0
ARC
  5
FB
100
AcDbEntity
  8
0
 62
256
370
-1
 48
1.0
  6
BYLAYER
100
AcDbCircle
 10
-11.7794431767112826
 20
10.2121426428142854
 30
0.0
 40
1.0
100
AcDbArc
 50
257.9202131393926152
 51
329.9999999999996021
  0
ARC
  5
FC
100
AcDbEntity
  8
0
 62
256
370
-1
 48
1.0
  6
BYLAYER
100
AcDbCircle
 10
17.2205568232887174
 20
24.7121426428142854
 30
0.0
 40
1.0
100
AcDbArc
 50
257.9202131393926152
 51
329.9999999999996021
  0
ARC
  5
FD
100
AcDbEntity
  8
0
 62
256
370
-1
 48
1.0
  6
BYLAYER
100
AcDbCircle
 10
46.2205568232887174
 20
38.7121426428142854
 30
0.0
 40
1.0
100
AcDbArc
 50
257.9202131393926152
 51
329.9999999999996021
  0
ARC
  5
FE
100
AcDbEntity
  8
0
 62
256
370
-1
 48
1.0
  6
BYLAYER
100
AcDbCircle
 10
75.2205568232887174
 20
38.7121426428142854
 30
0.0
 40
1.0
100
AcDbArc
 50
257.9202131393926152
 51
329.9999999999996021
  0
ARC
  5
FF
100
AcDbEntity
  8
0
 62
256
370
-1
 48
1.0
  6
BYLAYER
100
AcDbCircle
 10
104.2205568232887174
 20
31.7121426428142854
 30
0.0
 40
1.0
100
AcDbArc
 50
257.9202131393926152
 51
329.9999999999996021
  0
ARC
  5
100
100
AcDbEntity
  8
0
 62
256
370
-1
 48
1.0
  6
BYLAYER
100
AcDbCircle
 10
17.2205568232887174
 20
-4.2878573571857146
 30
0.0
 40
1.0
100
AcDbArc
 50
257.9202131393926152
 51
329.9999999999996021
  0
ARC
  5
101
100
AcDbEntity
  8
0
 62
256
370
-1
 48
1.0
  6
BYLAYER
100
AcDbCircle
 10
46.2205568232887174
 20
9.7121426428142854
 30
0.0
 40
1.0
100
AcDbArc
 50
257.9202131393926152
 51
329.9999999999996021
  0
ARC
  5
102
100
AcDbEntity
  8
0
 62
256
370
-1
 48
1.0
  6
BYLAYER
100
AcDbCircle
 10
75.2205568232887174
 20
9.7121426428142854
 30
0.0
 40
1.0
100
AcDbArc
 50
257.9202131393926152
 51
329.9999999999996021
  0
ARC
  5
103
100
AcDbEntity
  8
0
 62
256
370
-1
 48
1.0
  6
BYLAYER
100
AcDbCircle
 10
104.2205568232887174
 20
2.7121426428142854
 30
0.0
 40
1.0
100
AcDbArc
 50
257.9202131393926152
 51
329.9999999999996021
  0
ARC
  5
104
100
AcDbEntity
  8
0
 62
256
370
-1
 48
1.0
  6
BYLAYER
100
AcDbCircle
 10
-139.7320508075688963
 20
71.1243556529821319
 30
0.0
 40
1.0
100
AcDbArc
 50
60.0000000000002771
 51
149.99999999999946
  0
ARC
  5
105
100
AcDbEntity
  8
0
 62
256
370
-1
 48
1.0
  6
BYLAYER
100
AcDbCircle
 10
-110.7320508075688963
 20
71.1243556529821319
 30
0.0
 40
1.0
100
AcDbArc
 50
60.0000000000002771
 51
149.99999999999946
  0
ARC
  5
106
100
AcDbEntity
  8
0
 62
256
370
-1
 48
1.0
  6
BYLAYER
100
AcDbCircle
 10
-81.7320508075688963
 20
71.1243556529821319
 30
0.0
 40
1.0
100
AcDbArc
 50
60.0000000000002771
 51
149.99999999999946
  0
ARC
  5
107
100
AcDbEntity
  8
0
 62
256
370
-1
 48
1.0
  6
BYLAYER
100
AcDbCircle
 10
92.2679491924311037
 20
71.1243556529821319
 30
0.0
 40
1.0
100
AcDbArc
 50
60.0000000000002771
 51
149.99999999999946
  0
ARC
  5
108
100
AcDbEntity
  8
0
 62
256
370
-1
 48
1.0
  6
BYLAYER
100
AcDbCircle
 10
121.2679491924311037
 20
71.1243556529821319
 30
0.0
 40
1.0
100
AcDbArc
 50
60.0000000000002771
 51
149.99999999999946
  0
ARC
  5
109
100
AcDbEntity
  8
0
 62
256
370
-1
 48
1.0
  6
BYLAYER
100
AcDbCircle
 10
150.2679491924311037
 20
71.1243556529821319
 30
0.0
 40
1.0
100
AcDbArc
 50
60.0000000000002771
 51
149.99999999999946
  0
ARC
  5
10A
100
AcDbEntity
  8
0
 62
256
370
-1
 48
1.0
  6
BYLAYER
100
AcDbCircle
 10
-67.2320508075688963
 20
24.6243556529821319
 30
0.0
 40
1.0
100
AcDbArc
 50
60.0000000000002771
 51
149.99999999999946
  0
ARC
  5
10B
100
AcDbEntity
  8
0
 62
256
370
-1
 48
1.0
  6
BYLAYER
100
AcDbCircle
 10
-38.2320508075688963
 20
24.6243556529821319
 30
0.0
 40
1.0
100
AcDbArc
 50
60.0000000000002771
 51
149.99999999999946
  0
ARC
  5
10C
100
AcDbEntity
  8
0
 62
256
370
-1
 48
1.0
  6
BYLAYER
100
AcDbCircle
 10
-9.2320508075688963
 20
10.6243556529821319
 30
0.0
 40
1.0
100
AcDbArc
 50
60.0000000000002771
 51
149.99999999999946
  0
ARC
  5
10D
100
AcDbEntity
  8
0
 62
256
370
-1
 48
1.0
  6
BYLAYER
100
AcDbCircle
 10
19.7679491924311037
 20
25.1243556529821319
 30
0.0
 40
1.0
100
AcDbArc
 50
60.0000000000002771
 51
149.99999999999946
  0
ARC
  5
10E
100
AcDbEntity
  8
0
 62
256
370
-1
 48
1.0
  6
BYLAYER
100
AcDbCircle
 10
48.7679491924311037
 20
39.1243556529821319
 30
0.0
 40
1.0
100
AcDbArc
 50
60.0000000000002771
 51
149.99999999999946
  0
ARC
  5
10F
100
AcDbEntity
  8
0
 62
256
370
-1
 48
1.0
  6
BYLAYER
100
AcDbCircle
 10
77.7679491924311037
 20
39.1243556529821319
 30
0.0
 40
1.0
100
AcDbArc
 50
60.0000000000002771
 51
149.99999999999946
  0
ARC
  5
110
100
AcDbEntity
  8
0
 62
256
370
-1
 48
1.0
  6
BYLAYER
100
AcDbCircle
 10
106.7679491924311037
 20
32.1243556529821319
 30
0.0
 40
1.0
100
AcDbArc
 50
60.0000000000002771
 51
149.99999999999946
  0
ARC
  5
111
100
AcDbEntity
  8
0
 62
256
370
-1
 48
1.0
  6
BYLAYER
100
AcDbCircle
 10
19.7679491924311037
 20
-3.8756443470178681
 30
0.0
 40
1.0
100
AcDbArc
 50
60.0000000000002771
 51
149.99999999999946
  0
ARC
  5
112
100
AcDbEntity
  8
0
 62
256
370
-1
 48
1.0
  6
BYLAYER
100
AcDbCircle
 10
48.7679491924311037
 20
10.1243556529821319
 30
0.0
 40
1.0
100
AcDbArc
 50
60.0000000000002771
 51
149.99999999999946
  0
ARC
  5
113
100
AcDbEntity
  8
0
 62
256
370
-1
 48
1.0
  6
BYLAYER
100
AcDbCircle
 10
77.7679491924311037
 20
10.1243556529821319
 30
0.0
 40
1.0
100
AcDbArc
 50
60.0000000000002771
 51
149.99999999999946
  0
ARC
  5
114
100
AcDbEntity
  8
0
 62
256
370
-1
 48
1.0
  6
BYLAYER
100
AcDbCircle
 10
106.7679491924311037
 20
3.1243556529821319
 30
0.0
 40
1.0
100
AcDbArc
 50
60.0000000000002771
 51
149.99999999999946
  0
ARC
  5
115
100
AcDbEntity
  8
0
 62
256
370
-1
 48
1.0
  6
BYLAYER
100
AcDbCircle
 10
-136.2679491924311321
 20
69.1243556529821461
 30
0.0
 40
1.0
100
AcDbArc
 50
330.0000000000002842
 51
59.999999999999865
  0
ARC
  5
116
100
AcDbEntity
  8
0
 62
256
370
-1
 48
1.0
  6
BYLAYER
100
AcDbCircle
 10
-107.2679491924311321
 20
69.1243556529821461
 30
0.0
 40
1.0
100
AcDbArc
 50
330.0000000000002842
 51
59.999999999999865
  0
ARC
  5
117
100
AcDbEntity
  8
0
 62
256
370
-1
 48
1.0
  6
BYLAYER
100
AcDbCircle
 10
-78.2679491924311321
 20
69.1243556529821461
 30
0.0
 40
1.0
100
AcDbArc
 50
330.0000000000002842
 51
59.999999999999865
  0
ARC
  5
118
100
AcDbEntity
  8
0
 62
256
370
-1
 48
1.0
  6
BYLAYER
100
AcDbCircle
 10
95.7320508075688679
 20
69.1243556529821461
 30
0.0
 40
1.0
100
AcDbArc
 50
330.0000000000002842
 51
59.999999999999865
  0
ARC
  5
119
100
AcDbEntity
  8
0
 62
256
370
-1
 48
1.0
  6
BYLAYER
100
AcDbCircle
 10
124.7320508075688679
 20
69.1243556529821461
 30
0.0
 40
1.0
100
AcDbArc
 50
330.0000000000002842
 51
59.999999999999865
  0
ARC
  5
11A
100
AcDbEntity
  8
0
 62
256
370
-1
 48
1.0
  6
BYLAYER
100
AcDbCircle
 10
153.7320508075688679
 20
69.1243556529821461
 30
0.0
 40
1.0
100
AcDbArc
 50
330.0000000000002842
 51
59.999999999999865
  0
ARC
  5
11B
100
AcDbEntity
  8
0
 62
256
370
-1
 48
1.0
  6
BYLAYER
100
AcDbCircle
 10
-63.7679491924311321
 20
22.6243556529821461
 30
0.0
 40
1.0
100
AcDbArc
 50
330.0000000000002842
 51
59.999999999999865
  0
ARC
  5
11C
100
AcDbEntity
  8
0
 62
256
370
-1
 48
1.0
  6
BYLAYER
100
AcDbCircle
 10
-34.7679491924311321
 20
22.6243556529821461
 30
0.0
 40
1.0
100
AcDbArc
 50
330.0000000000002842
 51
59.999999999999865
  0
ARC
  5
11D
100
AcDbEntity
  8
0
 62
256
370
-1
 48
1.0
  6
BYLAYER
100
AcDbCircle
 10
-5.7679491924311321
 20
8.6243556529821461
 30
0.0
 40
1.0
100
AcDbArc
 50
330.0000000000002842
 51
59.999999999999865
  0
ARC
  5
11E
100
AcDbEntity
  8
0
 62
256
370
-1
 48
1.0
  6
BYLAYER
100
AcDbCircle
 10
23.2320508075688679
 20
23.1243556529821461
 30
0.0
 40
1.0
100
AcDbArc
 50
330.0000000000002842
 51
59.999999999999865
  0
ARC
  5
11F
100
AcDbEntity
  8
0
 62
256
370
-1
 48
1.0
  6
BYLAYER
100
AcDbCircle
 10
52.2320508075688679
 20
37.1243556529821461
 30
0.0
 40
1.0
100
AcDbArc
 50
330.0000000000002842
 51
59.999999999999865
  0
ARC
  5
120
100
AcDbEntity
  8
0
 62
256
370
-1
 48
1.0
  6
BYLAYER
100
AcDbCircle
 10
81.2320508075688679
 20
37.1243556529821461
 30
0.0
 40
1.0
100
AcDbArc
 50
330.0000000000002842
 51
59.999999999999865
  0
ARC
  5
121
100
AcDbEntity
  8
0
 62
256
370
-1
 48
1.0
  6
BYLAYER
100
AcDbCircle
 10
110.2320508075688679
 20
30.1243556529821461
 30
0.0
 40
1.0
100
AcDbArc
 50
330.0000000000002842
 51
59.999999999999865
  0
ARC
  5
122
100
AcDbEntity
  8
0
 62
256
370
-1
 48
1.0
  6
BYLAYER
100
AcDbCircle
 10
23.2320508075688679
 20
-5.8756443470178539
 30
0.0
 40
1.0
100
AcDbArc
 50
330.0000000000002842
 51
59.999999999999865
  0
ARC
  5
123
100
AcDbEntity
  8
0
 62
256
370
-1
 48
1.0
  6
BYLAYER
100
AcDbCircle
 10
52.2320508075688679
 20
8.1243556529821461
 30
0.0
 40
1.0
100
AcDbArc
 50
330.0000000000002842
 51
59.999999999999865
  0
ARC
  5
124
100
AcDbEntity
  8
0
 62
256
370
-1
 48
1.0
  6
BYLAYER
100
AcDbCircle
 10
81.2320508075688679
 20
8.1243556529821461
 30
0.0
 40
1.0
100
AcDbArc
 50
330.0000000000002842
 51
59.999999999999865
  0
ARC
  5
125
100
AcDbEntity
  8
0
 62
256
370
-1
 48
1.0
  6
BYLAYER
100
AcDbCircle
 10
110.2320508075688679
 20
1.1243556529821461
 30
0.0
 40
1.0
100
AcDbArc
 50
330.0000000000002842
 51
59.999999999999865
  0
ARC
  5
126
100
AcDbEntity
  8
0
 62
256
370
-1
 48
1.0
  6
BYLAYER
100
AcDbCircle
 10
-135.3512399464357543
 20
66.7121426428142712
 30
0.0
 40
1.0
100
AcDbArc
 50
150.0000000000002842
 51
222.0797868606074417
  0
ARC
  5
127
100
AcDbEntity
  8
0
 62
256
370
-1
 48
1.0
  6
BYLAYER
100
AcDbCircle
 10
-106.3512399464357543
 20
66.7121426428142712
 30
0.0
 40
1.0
100
AcDbArc
 50
150.0000000000002842
 51
222.0797868606074417
  0
ARC
  5
128
100
AcDbEntity
  8
0
 62
256
370
-1
 48
1.0
  6
BYLAYER
100
AcDbCircle
 10
-77.3512399464357543
 20
66.7121426428142712
 30
0.0
 40
1.0
100
AcDbArc
 50
150.0000000000002842
 51
222.0797868606074417
  0
ARC
  5
129
100
AcDbEntity
  8
0
 62
256
370
-1
 48
1.0
  6
BYLAYER
100
AcDbCircle
 10
96.6487600535642457
 20
66.7121426428142712
 30
0.0
 40
1.0
100
AcDbArc
 50
150.0000000000002842
 51
222.0797868606074417
  0
ARC
  5
12A
100
AcDbEntity
  8
0
 62
256
370
-1
 48
1.0
  6
BYLAYER
100
AcDbCircle
 10
125.6487600535642457
 20
66.7121426428142712
 30
0.0
 40
1.0
100
AcDbArc
 50
150.0000000000002842
 51
222.0797868606074417
  0
ARC
  5
12B
100
AcDbEntity
  8
0
 62
256
370
-1
 48
1.0
  6
BYLAYER
100
AcDbCircle
 10
154.6487600535642457
 20
66.7121426428142712
 30
0.0
 40
1.0
100
AcDbArc
 50
150.0000000000002842
 51
222.0797868606074417
  0
ARC
  5
12C
100
AcDbEntity
  8
0
 62
256
370
-1
 48
1.0
  6
BYLAYER
100
AcDbCircle
 10
-62.8512399464357543
 20
20.2121426428142712
 30
0.0
 40
1.0
100
AcDbArc
 50
150.0000000000002842
 51
222.0797868606074417
  0
ARC
  5
12D
100
AcDbEntity
  8
0
 62
256
370
-1
 48
1.0
  6
BYLAYER
100
AcDbCircle
 10
-33.8512399464357543
 20
20.2121426428142712
 30
0.0
 40
1.0
100
AcDbArc
 50
150.0000000000002842
 51
222.0797868606074417
  0
ARC
  5
12E
100
AcDbEntity
  8
0
 62
256
370
-1
 48
1.0
  6
BYLAYER
100
AcDbCircle
 10
-4.8512399464357543
 20
6.2121426428142712
 30
0.0
 40
1.0
100
AcDbArc
 50
150.0000000000002842
 51
222.0797868606074417
  0
ARC
  5
12F
100
AcDbEntity
  8
0
 62
256
370
-1
 48
1.0
  6
BYLAYER
100
AcDbCircle
 10
24.1487600535642457
 20
20.7121426428142712
 30
0.0
 40
1.0
100
AcDbArc
 50
150.0000000000002842
 51
222.0797868606074417
  0
ARC
  5
130
100
AcDbEntity
  8
0
 62
256
370
-1
 48
1.0
  6
BYLAYER
100
AcDbCircle
 10
53.1487600535642457
 20
34.7121426428142712
 30
0.0
 40
1.0
100
AcDbArc
 50
150.0000000000002842
 51
222.0797868606074417
  0
ARC
  5
131
100
AcDbEntity
  8
0
 62
256
370
-1
 48
1.0
  6
BYLAYER
100
AcDbCircle
 10
82.1487600535642457
 20
34.7121426428142712
 30
0.0
 40
1.0
100
AcDbArc
 50
150.0000000000002842
 51
222.0797868606074417
  0
ARC
  5
132
100
AcDbEntity
  8
0
 62
256
370
-1
 48
1.0
  6
BYLAYER
100
AcDbCircle
 10
111.1487600535642457
 20
27.7121426428142712
 30
0.0
 40
1.0
100
AcDbArc
 50
150.0000000000002842
 51
222.0797868606074417
  0
ARC
  5
133
100
AcDbEntity
  8
0
 62
256
370
-1
 48
1.0
  6
BYLAYER
100
AcDbCircle
 10
24.1487600535642457
 20
-8.2878573571857288
 30
0.0
 40
1.0
100
AcDbArc
 50
150.0000000000002842
 51
222.0797868606074417
  0
ARC
  5
134
100
AcDbEntity
  8
0
 62
256
370
-1
 48
1.0
  6
BYLAYER
100
AcDbCircle
 10
53.1487600535642457
 20
5.7121426428142712
 30
0.0
 40
1.0
100
AcDbArc
 50
150.0000000000002842
 51
222.0797868606074417
  0
ARC
  5
135
100
AcDbEntity
  8
0
 62
256
370
-1
 48
1.0
  6
BYLAYER
100
AcDbCircle
 10
82.1487600535642457
 20
5.7121426428142712
 30
0.0
 40
1.0
100
AcDbArc
 50
150.0000000000002842
 51
222.0797868606074417
  0
ARC
  5
136
100
AcDbEntity
  8
0
 62
256
370
-1
 48
1.0
  6
BYLAYER
100
AcDbCircle
 10
111.1487600535642457
 20
-1.2878573571857288
 30
0.0
 40
1.0
100
AcDbArc
 50
150.0000000000002842
 51
222.0797868606074417
  0
ARC
  5
137
100
AcDbEntity
  8
0
 62
256
370
-1
 48
1.0
  6
BYLAYER
100
AcDbCircle
 10
-147.7205568232887174
 20
45.2878573571857217
 30
0.0
 40
1.0
100
AcDbArc
 50
77.9202131393924446
 51
149.9999999999999147
  0
ARC
  5
138
100
AcDbEntity
  8
0
 62
256
370
-1
 48
1.0
  6
BYLAYER
100
AcDbCircle
 10
-118.7205568232887174
 20
45.2878573571857217
 30
0.0
 40
1.0
100
AcDbArc
 50
77.9202131393924446
 51
149.9999999999999147
  0
ARC
  5
139
100
AcDbEntity
  8
0
 62
256
370
-1
 48
1.0
  6
BYLAYER
100
AcDbCircle
 10
-89.7205568232887174
 20
45.2878573571857217
 30
0.0
 40
1.0
100
AcDbArc
 50
77.9202131393924446
 51
149.9999999999999147
  0
ARC
  5
13A
100
AcDbEntity
  8
0
 62
256
370
-1
 48
1.0
  6
BYLAYER
100
AcDbCircle
 10
84.2794431767112826
 20
45.2878573571857217
 30
0.0
 40
1.0
100
AcDbArc
 50
77.9202131393924446
 51
149.9999999999999147
  0
ARC
  5
13B
100
AcDbEntity
  8
0
 62
256
370
-1
 48
1.0
  6
BYLAYER
100
AcDbCircle
 10
113.2794431767112826
 20
45.2878573571857217
 30
0.0
 40
1.0
100
AcDbArc
 50
77.9202131393924446
 51
149.9999999999999147
  0
ARC
  5
13C
100
AcDbEntity
  8
0
 62
256
370
-1
 48
1.0
  6
BYLAYER
100
AcDbCircle
 10
142.2794431767112826
 20
45.2878573571857217
 30
0.0
 40
1.0
100
AcDbArc
 50
77.9202131393924446
 51
149.9999999999999147
  0
ARC
  5
13D
100
AcDbEntity
  8
0
 62
256
370
-1
 48
1.0
  6
BYLAYER
100
AcDbCircle
 10
-75.2205568232887174
 20
-1.2121426428142783
 30
0.0
 40
1.0
100
AcDbArc
 50
77.9202131393924446
 51
149.9999999999999147
  0
ARC
  5
13E
100
AcDbEntity
  8
0
 62
256
370
-1
 48
1.0
  6
BYLAYER
100
AcDbCircle
 10
-46.2205568232887174
 20
-1.2121426428142783
 30
0.0
 40
1.0
100
AcDbArc
 50
77.9202131393924446
 51
149.9999999999999147
  0
ARC
  5
13F
100
AcDbEntity
  8
0
 62
256
370
-1
 48
1.0
  6
BYLAYER
100
AcDbCircle
 10
-17.2205568232887174
 20
-15.2121426428142783
 30
0.0
 40
1.0
100
AcDbArc
 50
77.9202131393924446
 51
149.9999999999999147
  0
ARC
  5
140
100
AcDbEntity
  8
0
 62
256
370
-1
 48
1.0
  6
BYLAYER
100
AcDbCircle
 10
11.7794431767112826
 20
-0.7121426428142783
 30
0.0
 40
1.0
100
AcDbArc
 50
77.9202131393924446
 51
149.9999999999999147
  0
ARC
  5
141
100
AcDbEntity
  8
0
 62
256
370
-1
 48
1.0
  6
BYLAYER
100
AcDbCircle
 10
40.7794431767112826
 20
13.2878573571857217
 30
0.0
 40
1.0
100
AcDbArc
 50
77.9202131393924446
 51
149.9999999999999147
  0
ARC
  5
142
100
AcDbEntity
  8
0
 62
256
370
-1
 48
1.0
  6
BYLAYER
100
AcDbCircle
 10
69.7794431767112826
 20
13.2878573571857217
 30
0.0
 40
1.0
100
AcDbArc
 50
77.9202131393924446
 51
149.9999999999999147
  0
ARC
  5
143
100
AcDbEntity
  8
0
 62
256
370
-1
 48
1.0
  6
BYLAYER
100
AcDbCircle
 10
98.7794431767112826
 20
6.2878573571857217
 30
0.0
 40
1.0
100
AcDbArc
 50
77.9202131393924446
 51
149.9999999999999147
  0
ARC
  5
144
100
AcDbEntity
  8
0
 62
256
370
-1
 48
1.0
  6
BYLAYER
100
AcDbCircle
 10
11.7794431767112826
 20
-29.7121426428142783
 30
0.0
 40
1.0
100
AcDbArc
 50
77.9202131393924446
 51
149.9999999999999147
  0
ARC
  5
145
100
AcDbEntity
  8
0
 62
256
370
-1
 48
1.0
  6
BYLAYER
100
AcDbCircle
 10
40.7794431767112826
 20
-15.7121426428142783
 30
0.0
 40
1.0
100
AcDbArc
 50
77.9202131393924446
 51
149.9999999999999147
  0
ARC
  5
146
100
AcDbEntity
  8
0
 62
256
370
-1
 48
1.0
  6
BYLAYER
100
AcDbCircle
 10
69.7794431767112826
 20
-15.7121426428142783
 30
0.0
 40
1.0
100
AcDbArc
 50
77.9202131393924446
 51
149.9999999999999147
  0
ARC
  5
147
100
AcDbEntity
  8
0
 62
256
370
-1
 48
1.0
  6
BYLAYER
100
AcDbCircle
 10
98.7794431767112826
 20
-22.7121426428142783
 30
0.0
 40
1.0
100
AcDbArc
 50
77.9202131393924446
 51
149.9999999999999147
  0
ARC
  5
148
100
AcDbEntity
  8
0
 62
256
370
-1
 48
1.0
  6
BYLAYER
100
AcDbCircle
 10
-150.2679491924311606
 20
44.8756443470178752
 30
0.0
 40
1.0
100
AcDbArc
 50
239.9999999999998295
 51
330.0
  0
ARC
  5
149
100
AcDbEntity
  8
0
 62
256
370
-1
 48
1.0
  6
BYLAYER
100
AcDbCircle
 10
-121.2679491924311606
 20
44.8756443470178752
 30
0.0
 40
1.0
100
AcDbArc
 50
239.9999999999998295
 51
330.0
  0
ARC
  5
14A
100
AcDbEntity
  8
0
 62
256
370
-1
 48
1.0
  6
BYLAYER
100
AcDbCircle
 10
-92.2679491924311606
 20
44.8756443470178752
 30
0.0
 40
1.0
100
AcDbArc
 50
239.9999999999998295
 51
330.0
  0
ARC
  5
14B
100
AcDbEntity
  8
0
 62
256
370
-1
 48
1.0
  6
BYLAYER
100
AcDbCircle
 10
81.7320508075688394
 20
44.8756443470178752
 30
0.0
 40
1.0
100
AcDbArc
 50
239.9999999999998295
 51
330.0
  0
ARC
  5
14C
100
AcDbEntity
  8
0
 62
256
370
-1
 48
1.0
  6
BYLAYER
100
AcDbCircle
 10
110.7320508075688394
 20
44.8756443470178752
 30
0.0
 40
1.0
100
AcDbArc
 50
239.9999999999998295
 51
330.0
  0
ARC
  5
14D
100
AcDbEntity
  8
0
 62
256
370
-1
 48
1.0
  6
BYLAYER
100
AcDbCircle
 10
139.7320508075688394
 20
44.8756443470178752
 30
0.0
 40
1.0
100
AcDbArc
 50
239.9999999999998295
 51
330.0
  0
ARC
  5
14E
100
AcDbEntity
  8
0
 62
256
370
-1
 48
1.0
  6
BYLAYER
100
AcDbCircle
 10
-77.7679491924311606
 20
-1.6243556529821248
 30
0.0
 40
1.0
100
AcDbArc
 50
239.9999999999998295
 51
330.0
  0
ARC
  5
14F
100
AcDbEntity
  8
0
 62
256
370
-1
 48
1.0
  6
BYLAYER
100
AcDbCircle
 10
-48.7679491924311606
 20
-1.6243556529821248
 30
0.0
 40
1.0
100
AcDbArc
 50
239.9999999999998295
 51
330.0
  0
ARC
  5
150
100
AcDbEntity
  8
0
 62
256
370
-1
 48
1.0
  6
BYLAYER
100
AcDbCircle
 10
-19.7679491924311606
 20
-15.6243556529821248
 30
0.0
 40
1.0
100
AcDbArc
 50
239.9999999999998295
 51
330.0
  0
ARC
  5
151
100
AcDbEntity
  8
0
 62
256
370
-1
 48
1.0
  6
BYLAYER
100
AcDbCircle
 10
9.2320508075688394
 20
-1.1243556529821248
 30
0.0
 40
1.0
100
AcDbArc
 50
239.9999999999998295
 51
330.0
  0
ARC
  5
152
100
AcDbEntity
  8
0
 62
256
370
-1
 48
1.0
  6
BYLAYER
100
AcDbCircle
 10
38.2320508075688394
 20
12.8756443470178752
 30
0.0
 40
1.0
100
AcDbArc
 50
239.9999999999998295
 51
330.0
  0
ARC
  5
153
100
AcDbEntity
  8
0
 62
256
370
-1
 48
1.0
  6
BYLAYER
100
AcDbCircle
 10
67.2320508075688394
 20
12.8756443470178752
 30
0.0
 40
1.0
100
AcDbArc
 50
239.9999999999998295
 51
330.0
  0
ARC
  5
154
100
AcDbEntity
  8
0
 62
256
370
-1
 48
1.0
  6
BYLAYER
100
AcDbCircle
 10
96.2320508075688394
 20
5.8756443470178752
 30
0.0
 40
1.0
100
AcDbArc
 50
239.9999999999998295
 51
330.0
  0
ARC
  5
155
100
AcDbEntity
  8
0
 62
256
370
-1
 48
1.0
  6
BYLAYER
100
AcDbCircle
 10
9.2320508075688394
 20
-30.1243556529821248
 30
0.0
 40
1.0
100
AcDbArc
 50
239.9999999999998295
 51
330.0
  0
ARC
  5
156
100
AcDbEntity
  8
0
 62
256
370
-1
 48
1.0
  6
BYLAYER
100
AcDbCircle
 10
38.2320508075688394
 20
-16.1243556529821248
 30
0.0
 40
1.0
100
AcDbArc
 50
239.9999999999998295
 51
330.0
  0
ARC
  5
157
100
AcDbEntity
  8
0
 62
256
370
-1
 48
1.0
  6
BYLAYER
100
AcDbCircle
 10
67.2320508075688394
 20
-16.1243556529821248
 30
0.0
 40
1.0
100
AcDbArc
 50
239.9999999999998295
 51
330.0
  0
ARC
  5
158
100
AcDbEntity
  8
0
 62
256
370
-1
 48
1.0
  6
BYLAYER
100
AcDbCircle
 10
96.2320508075688394
 20
-23.1243556529821248
 30
0.0
 40
1.0
100
AcDbArc
 50
239.9999999999998295
 51
330.0
  0
ARC
  5
159
100
AcDbEntity
  8
0
 62
256
370
-1
 48
1.0
  6
BYLAYER
100
AcDbCircle
 10
-153.7320508075688679
 20
46.8756443470178468
 30
0.0
 40
1.0
100
AcDbArc
 50
149.9999999999999147
 51
239.9999999999998295
  0
ARC
  5
15A
100
AcDbEntity
  8
0
 62
256
370
-1
 48
1.0
  6
BYLAYER
100
AcDbCircle
 10
-124.7320508075688679
 20
46.8756443470178468
 30
0.0
 40
1.0
100
AcDbArc
 50
149.9999999999999147
 51
239.9999999999998295
  0
ARC
  5
15B
100
AcDbEntity
  8
0
 62
256
370
-1
 48
1.0
  6
BYLAYER
100
AcDbCircle
 10
-95.7320508075688679
 20
46.8756443470178468
 30
0.0
 40
1.0
100
AcDbArc
 50
149.9999999999999147
 51
239.9999999999998295
  0
ARC
  5
15C
100
AcDbEntity
  8
0
 62
256
370
-1
 48
1.0
  6
BYLAYER
100
AcDbCircle
 10
78.2679491924311321
 20
46.8756443470178468
 30
0.0
 40
1.0
100
AcDbArc
 50
149.9999999999999147
 51
239.9999999999998295
  0
ARC
  5
15D
100
AcDbEntity
  8
0
 62
256
370
-1
 48
1.0
  6
BYLAYER
100
AcDbCircle
 10
107.2679491924311321
 20
46.8756443470178468
 30
0.0
 40
1.0
100
AcDbArc
 50
149.9999999999999147
 51
239.9999999999998295
  0
ARC
  5
15E
100
AcDbEntity
  8
0
 62
256
370
-1
 48
1.0
  6
BYLAYER
100
AcDbCircle
 10
136.2679491924311321
 20
46.8756443470178468
 30
0.0
 40
1.0
100
AcDbArc
 50
149.9999999999999147
 51
239.9999999999998295
  0
ARC
  5
15F
100
AcDbEntity
  8
0
 62
256
370
-1
 48
1.0
  6
BYLAYER
100
AcDbCircle
 10
-81.2320508075688679
 20
0.3756443470178468
 30
0.0
 40
1.0
100
AcDbArc
 50
149.9999999999999147
 51
239.9999999999998295
  0
ARC
  5
160
100
AcDbEntity
  8
0
 62
256
370
-1
 48
1.0
  6
BYLAYER
100
AcDbCircle
 10
-52.2320508075688679
 20
0.3756443470178468
 30
0.0
 40
1.0
100
AcDbArc
 50
149.9999999999999147
 51
239.9999999999998295
  0
ARC
  5
161
100
AcDbEntity
  8
0
 62
256
370
-1
 48
1.0
  6
BYLAYER
100
AcDbCircle
 10
-23.2320508075688679
 20
-13.6243556529821532
 30
0.0
 40
1.0
100
AcDbArc
 50
149.9999999999999147
 51
239.9999999999998295
  0
ARC
  5
162
100
AcDbEntity
  8
0
 62
256
370
-1
 48
1.0
  6
BYLAYER
100
AcDbCircle
 10
5.7679491924311321
 20
0.8756443470178468
 30
0.0
 40
1.0
100
AcDbArc
 50
149.9999999999999147
 51
239.9999999999998295
  0
ARC
  5
163
100
AcDbEntity
  8
0
 62
256
370
-1
 48
1.0
  6
BYLAYER
100
AcDbCircle
 10
34.7679491924311321
 20
14.8756443470178468
 30
0.0
 40
1.0
100
AcDbArc
 50
149.9999999999999147
 51
239.9999999999998295
  0
ARC
  5
164
100
AcDbEntity
  8
0
 62
256
370
-1
 48
1.0
  6
BYLAYER
100
AcDbCircle
 10
63.7679491924311321
 20
14.8756443470178468
 30
0.0
 40
1.0
100
AcDbArc
 50
149.9999999999999147
 51
239.9999999999998295
  0
ARC
  5
165
100
AcDbEntity
  8
0
 62
256
370
-1
 48
1.0
  6
BYLAYER
100
AcDbCircle
 10
92.7679491924311321
 20
7.8756443470178468
 30
0.0
 40
1.0
100
AcDbArc
 50
149.9999999999999147
 51
239.9999999999998295
  0
ARC
  5
166
100
AcDbEntity
  8
0
 62
256
370
-1
 48
1.0
  6
BYLAYER
100
AcDbCircle
 10
5.7679491924311321
 20
-28.1243556529821532
 30
0.0
 40
1.0
100
AcDbArc
 50
149.9999999999999147
 51
239.9999999999998295
  0
ARC
  5
167
100
AcDbEntity
  8
0
 62
256
370
-1
 48
1.0
  6
BYLAYER
100
AcDbCircle
 10
34.7679491924311321
 20
-14.1243556529821532
 30
0.0
 40
1.0
100
AcDbArc
 50
149.9999999999999147
 51
239.9999999999998295
  0
ARC
  5
168
100
AcDbEntity
  8
0
 62
256
370
-1
 48
1.0
  6
BYLAYER
100
AcDbCircle
 10
63.7679491924311321
 20
-14.1243556529821532
 30
0.0
 40
1.0
100
AcDbArc
 50
149.9999999999999147
 51
239.9999999999998295
  0
ARC
  5
169
100
AcDbEntity
  8
0
 62
256
370
-1
 48
1.0
  6
BYLAYER
100
AcDbCircle
 10
92.7679491924311321
 20
-21.1243556529821532
 30
0.0
 40
1.0
100
AcDbArc
 50
149.9999999999999147
 51
239.9999999999998295
  0
ARC
  5
16A
100
AcDbEntity
  8
0
 62
256
370
-1
 48
1.0
  6
BYLAYER
100
AcDbCircle
 10
-154.6487600535642457
 20
49.2878573571857288
 30
0.0
 40
1.0
100
AcDbArc
 50
330.0000000000002842
 51
42.0797868606074772
  0
ARC
  5
16B
100
AcDbEntity
  8
0
 62
256
370
-1
 48
1.0
  6
BYLAYER
100
AcDbCircle
 10
-125.6487600535642457
 20
49.2878573571857288
 30
0.0
 40
1.0
100
AcDbArc
 50
330.0000000000002842
 51
42.0797868606074772
  0
ARC
  5
16C
100
AcDbEntity
  8
0
 62
256
370
-1
 48
1.0
  6
BYLAYER
100
AcDbCircle
 10
-96.6487600535642457
 20
49.2878573571857288
 30
0.0
 40
1.0
100
AcDbArc
 50
330.0000000000002842
 51
42.0797868606074772
  0
ARC
  5
16D
100
AcDbEntity
  8
0
 62
256
370
-1
 48
1.0
  6
BYLAYER
100
AcDbCircle
 10
77.3512399464357543
 20
49.2878573571857288
 30
0.0
 40
1.0
100
AcDbArc
 50
330.0000000000002842
 51
42.0797868606074772
  0
ARC
  5
16E
100
AcDbEntity
  8
0
 62
256
370
-1
 48
1.0
  6
BYLAYER
100
AcDbCircle
 10
106.3512399464357543
 20
49.2878573571857288
 30
0.0
 40
1.0
100
AcDbArc
 50
330.0000000000002842
 51
42.0797868606074772
  0
ARC
  5
16F
100
AcDbEntity
  8
0
 62
256
370
-1
 48
1.0
  6
BYLAYER
100
AcDbCircle
 10
135.3512399464357543
 20
49.2878573571857288
 30
0.0
 40
1.0
100
AcDbArc
 50
330.0000000000002842
 51
42.0797868606074772
  0
ARC
  5
170
100
AcDbEntity
  8
0
 62
256
370
-1
 48
1.0
  6
BYLAYER
100
AcDbCircle
 10
-82.1487600535642457
 20
2.7878573571857288
 30
0.0
 40
1.0
100
AcDbArc
 50
330.0000000000002842
 51
42.0797868606074772
  0
ARC
  5
171
100
AcDbEntity
  8
0
 62
256
370
-1
 48
1.0
  6
BYLAYER
100
AcDbCircle
 10
-53.1487600535642457
 20
2.7878573571857288
 30
0.0
 40
1.0
100
AcDbArc
 50
330.0000000000002842
 51
42.0797868606074772
  0
ARC
  5
172
100
AcDbEntity
  8
0
 62
256
370
-1
 48
1.0
  6
BYLAYER
100
AcDbCircle
 10
-24.1487600535642457
 20
-11.2121426428142712
 30
0.0
 40
1.0
100
AcDbArc
 50
330.0000000000002842
 51
42.0797868606074772
  0
ARC
  5
173
100
AcDbEntity
  8
0
 62
256
370
-1
 48
1.0
  6
BYLAYER
100
AcDbCircle
 10
4.8512399464357543
 20
3.2878573571857288
 30
0.0
 40
1.0
100
AcDbArc
 50
330.0000000000002842
 51
42.0797868606074772
  0
ARC
  5
174
100
AcDbEntity
  8
0
 62
256
370
-1
 48
1.0
  6
BYLAYER
100
AcDbCircle
 10
33.8512399464357543
 20
17.2878573571857288
 30
0.0
 40
1.0
100
AcDbArc
 50
330.0000000000002842
 51
42.0797868606074772
  0
ARC
  5
175
100
AcDbEntity
  8
0
 62
256
370
-1
 48
1.0
  6
BYLAYER
100
AcDbCircle
 10
62.8512399464357543
 20
17.2878573571857288
 30
0.0
 40
1.0
100
AcDbArc
 50
330.0000000000002842
 51
42.0797868606074772
  0
ARC
  5
176
100
AcDbEntity
  8
0
 62
256
370
-1
 48
1.0
  6
BYLAYER
100
AcDbCircle
 10
91.8512399464357543
 20
10.2878573571857288
 30
0.0
 40
1.0
100
AcDbArc
 50
330.0000000000002842
 51
42.0797868606074772
  0
ARC
  5
177
100
AcDbEntity
  8
0
 62
256
370
-1
 48
1.0
  6
BYLAYER
100
AcDbCircle
 10
4.8512399464357543
 20
-25.7121426428142712
 30
0.0
 40
1.0
100
AcDbArc
 50
330.0000000000002842
 51
42.0797868606074772
  0
ARC
  5
178
100
AcDbEntity
  8
0
 62
256
370
-1
 48
1.0
  6
BYLAYER
100
AcDbCircle
 10
33.8512399464357543
 20
-11.7121426428142712
 30
0.0
 40
1.0
100
AcDbArc
 50
330.0000000000002842
 51
42.0797868606074772
  0
ARC
  5
179
100
AcDbEntity
  8
0
 62
256
370
-1
 48
1.0
  6
BYLAYER
100
AcDbCircle
 10
62.8512399464357543
 20
-11.7121426428142712
 30
0.0
 40
1.0
100
AcDbArc
 50
330.0000000000002842
 51
42.0797868606074772
  0
ARC
  5
17A
100
AcDbEntity
  8
0
 62
256
370
-1
 48
1.0
  6
BYLAYER
100
AcDbCircle
 10
91.8512399464357543
 20
-18.7121426428142712
 30
0.0
 40
1.0
100
AcDbArc
 50
330.0000000000002842
 51
42.0797868606074772
  0
LINE
  5
17B
100
AcDbEntity
  8
0
 62
256
370
-1
 48
1.0
  6
BYLAYER
100
AcDbLine
 10
-10.7320508075688696
 20
-33.9115427318801039
 30
0.0
 11
-7.2679491924311197
 21
-31.9115427318801039
 31
0.0
  0
LINE
  5
17C
100
AcDbEntity
  8
0
 62
256
370
-1
 48
1.0
  6
BYLAYER
100
AcDbLine
 10
7.2679491924311197
 20
-65.0884572681198961
 30
0.0
 11
10.732050807568875
 21
-63.0884572681198961
 31
0.0
  0
LINE
  5
17D
100
AcDbEntity
  8
0
 62
256
370
-1
 48
1.0
  6
BYLAYER
100
AcDbLine
 10
-11.0980762113533125
 20
-35.2775681356645379
 30
0.0
 11
-10.3440429037681447
 21
-36.5835921350012612
 31
0.0
  0
LINE
  5
17E
100
AcDbEntity
  8
0
 62
256
370
-1
 48
1.0
  6
BYLAYER
100
AcDbLine
 10
5.1478904810615163
 20
-63.4164078649987388
 30
0.0
 11
5.9019237886466849
 21
-64.7224318643354621
 31
0.0
  0
LINE
  5
17F
100
AcDbEntity
  8
0
 62
256
370
-1
 48
1.0
  6
BYLAYER
100
AcDbLine
 10
-5.1478904810615136
 20
-33.5835921350012612
 30
0.0
 11
-5.9019237886466733
 21
-32.2775681356645521
 31
0.0
  0
LINE
  5
180
100
AcDbEntity
  8
0
 62
256
370
-1
 48
1.0
  6
BYLAYER
100
AcDbLine
 10
11.098076211353316
 20
-61.7224318643354621
 30
0.0
 11
10.3440429037681483
 21
-60.4164078649987388
 31
0.0
  0
ARC
  5
181
100
AcDbEntity
  8
0
 62
256
370
-1
 48
1.0
  6
BYLAYER
100
AcDbCircle
 10
-11.2100683075525858
 20
-37.0835921350012612
 30
0.0
 40
1.0
100
AcDbArc
 50
314.4775121859298679
 51
29.9999999999999289
  0
ARC
  5
182
100
AcDbEntity
  8
0
 62
256
370
-1
 48
1.0
  6
BYLAYER
100
AcDbCircle
 10
-10.2320508075688714
 20
-34.7775681356645379
 30
0.0
 40
1.0
100
AcDbArc
 50
120.0000000000000711
 51
209.9999999999999432
  0
ARC
  5
183
100
AcDbEntity
  8
0
 62
256
370
-1
 48
1.0
  6
BYLAYER
100
AcDbCircle
 10
-6.7679491924311153
 20
-32.7775681356645521
 30
0.0
 40
1.0
100
AcDbArc
 50
29.9999999999999289
 51
119.9999999999999289
  0
ARC
  5
184
100
AcDbEntity
  8
0
 62
256
370
-1
 48
1.0
  6
BYLAYER
100
AcDbCircle
 10
-4.2818650772770743
 20
-33.0835921350012612
 30
0.0
 40
1.0
100
AcDbArc
 50
209.9999999999999716
 51
285.5224878140700753
  0
ARC
  5
185
100
AcDbEntity
  8
0
 62
256
370
-1
 48
1.0
  6
BYLAYER
100
AcDbCircle
 10
11.2100683075525893
 20
-59.9164078649987388
 30
0.0
 40
1.0
100
AcDbArc
 50
134.4775121859298679
 51
209.9999999999999432
  0
ARC
  5
186
100
AcDbEntity
  8
0
 62
256
370
-1
 48
1.0
  6
BYLAYER
100
AcDbCircle
 10
10.2320508075688767
 20
-62.2224318643354621
 30
0.0
 40
1.0
100
AcDbArc
 50
300.0000000000000568
 51
29.999999999999968
  0
ARC
  5
187
100
AcDbEntity
  8
0
 62
256
370
-1
 48
1.0
  6
BYLAYER
100
AcDbCircle
 10
6.7679491924311215
 20
-64.2224318643354621
 30
0.0
 40
1.0
100
AcDbArc
 50
210.0
 51
300.0000000000000568
  0
ARC
  5
188
100
AcDbEntity
  8
0
 62
256
370
-1
 48
1.0
  6
BYLAYER
100
AcDbCircle
 10
4.2818650772770779
 20
-63.9164078649987388
 30
0.0
 40
1.0
100
AcDbArc
 50
30.0000000000000036
 51
105.5224878140700611
  0
ENDSEC
  0
SECTION
  2
OBJECTS
  0
DICTIONARY
  5
C
100
AcDbDictionary
280
0
281
1
  3
ACAD_GROUP
350
D
  3
ACAD_LAYOUT
350
1A
  3
ACAD_MLINESTYLE
350
17
  3
ACAD_PLOTSETTINGS
350
19
  3
ACAD_PLOTSTYLENAME
350
E
  3
AcDbVariableDictionary
350
189
  3
QCAD_OBJECTS
350
18A
  0
DICTIONARY
  5
D
100
AcDbDictionary
280
0
281
1
  0
ACDBDICTIONARYWDFLT
  5
E
100
AcDbDictionary
281
1
  3
Normal
350
F
100
AcDbDictionaryWithDefault
340
F
  0
ACDBPLACEHOLDER
  5
F
  0
DICTIONARY
  5
17
100
AcDbDictionary
280
0
281
1
  3
Standard
350
18
  0
MLINESTYLE
  5
18
100
AcDbMlineStyle
  2
STANDARD
 70
0
  3

 62
256
 51
90.0
 52
90.0
 71
2
 49
0.5
 62
256
  6
BYLAYER
 49
-0.5
 62
256
  6
BYLAYER
  0
DICTIONARY
  5
19
100
AcDbDictionary
280
0
281
1
  0
DICTIONARY
  5
1A
100
AcDbDictionary
281
1
  3
Layout1
350
1E
  3
Layout2
350
26
  3
Model
350
22
  0
LAYOUT
  5
1E
100
AcDbPlotSettings
  1

  2
none_device
  4

  6

 40
0.0
 41
0.0
 42
0.0
 43
0.0
 44
0.0
 45
0.0
 46
0.0
 47
0.0
 48
0.0
 49
0.0
140
0.0
141
0.0
142
1.0
143
1.0
 70
688
 72
0
 73
0
 74
5
  7

 75
16
147
1.0
148
0.0
149
0.0
100
AcDbLayout
  1
Layout1
 70
1
 71
1
 10
0.0
 20
0.0
 11
420.0
 21
297.0
 12
0.0
 22
0.0
 32
0.0
 14
100000000000000000000.0
 24
100000000000000000000.0
 34
100000000000000000000.0
 15
-100000000000000000000.0
 25
-100000000000000000000.0
 35
-100000000000000000000.0
146
0.0
 13
0.0
 23
0.0
 33
0.0
 16
1.0
 26
0.0
 36
0.0
 17
0.0
 27
1.0
 37
0.0
 76
0
330
1B
  0
LAYOUT
  5
22
100
AcDbPlotSettings
  1

  2
none_device
  4

  6

 40
0.0
 41
0.0
 42
0.0
 43
0.0
 44
0.0
 45
0.0
 46
0.0
 47
0.0
 48
0.0
 49
0.0
140
0.0
141
0.0
142
1.0
143
1.0
 70
1712
 72
0
 73
0
 74
0
  7

 75
0
147
1.0
148
0.0
149
0.0
100
AcDbLayout
  1
Model
 70
1
 71
0
 10
0.0
 20
0.0
 11
12.0
 21
9.0
 12
0.0
 22
0.0
 32
0.0
 14
0.0
 24
0.0
 34
0.0
 15
0.0
 25
0.0
 35
0.0
146
0.0
 13
0.0
 23
0.0
 33
0.0
 16
1.0
 26
0.0
 36
0.0
 17
0.0
 27
1.0
 37
0.0
 76
0
330
1F
  0
LAYOUT
  5
26
100
AcDbPlotSettings
  1

  2
none_device
  4

  6

 40
0.0
 41
0.0
 42
0.0
 43
0.0
 44
0.0
 45
0.0
 46
0.0
 47
0.0
 48
0.0
 49
0.0
140
0.0
141
0.0
142
1.0
143
1.0
 70
688
 72
0
 73
0
 74
5
  7

 75
16
147
1.0
148
0.0
149
0.0
100
AcDbLayout
  1
Layout2
 70
1
 71
2
 10
0.0
 20
0.0
 11
12.0
 21
9.0
 12
0.0
 22
0.0
 32
0.0
 14
0.0
 24
0.0
 34
0.0
 15
0.0
 25
0.0
 35
0.0
146
0.0
 13
0.0
 23
0.0
 33
0.0
 16
1.0
 26
0.0
 36
0.0
 17
0.0
 27
1.0
 37
0.0
 76
0
330
23
  0
DICTIONARY
  5
189
100
AcDbDictionary
281
1
  3
DIMASSOC
350
18C
  3
HIDETEXT
350
18B
  0
DICTIONARYVAR
  5
18B
100
DictionaryVariables
280
0
  1
2
  0
DICTIONARYVAR
  5
18C
100
DictionaryVariables
280
0
  1
1
  0
DICTIONARY
  5
18A
100
AcDbDictionary
281
1
  3
ColorSettings/BackgroundColor
350
18D
  3
ColorSettings/ColorMode
350
18E
  3
Grid/DisplayGrid00
350
18F
  3
Grid/DisplayGrid01
350
190
  3
Grid/DisplayGrid02
350
191
  3
Grid/DisplayGrid03
350
192
  3
Grid/GridSpacingX00
350
193
  3
Grid/GridSpacingX01
350
194
  3
Grid/GridSpacingX02
350
195
  3
Grid/GridSpacingX03
350
196
  3
Grid/GridSpacingY00
350
197
  3
Grid/GridSpacingY01
350
198
  3
Grid/GridSpacingY02
350
199
  3
Grid/GridSpacingY03
350
19A
  3
Grid/IsometricGrid00
350
19B
  3
Grid/IsometricGrid01
350
19C
  3
Grid/IsometricGrid02
350
19D
  3
Grid/IsometricGrid03
350
19E
  3
Grid/IsometricProjection00
350
19F
  3
Grid/IsometricProjection01
350
1A0
  3
Grid/IsometricProjection02
350
1A1
  3
Grid/IsometricProjection03
350
1A2
  3
Grid/MetaGridSpacingX00
350
1A3
  3
Grid/MetaGridSpacingX01
350
1A4
  3
Grid/MetaGridSpacingX02
350
1A5
  3
Grid/MetaGridSpacingX03
350
1A6
  3
Grid/MetaGridSpacingY00
350
1A7
  3
Grid/MetaGridSpacingY01
350
1A8
  3
Grid/MetaGridSpacingY02
350
1A9
  3
Grid/MetaGridSpacingY03
350
1AA
  3
MultiPageSettings/Columns
350
1AB
  3
MultiPageSettings/GlueMarginsBottom
350
1AC
  3
MultiPageSettings/GlueMarginsLeft
350
1AD
  3
MultiPageSettings/GlueMarginsRight
350
1AE
  3
MultiPageSettings/GlueMarginsTop
350
1AF
  3
MultiPageSettings/PrintCropMarks
350
1B0
  3
MultiPageSettings/Rows
350
1B1
  3
PageSettings/OffsetX
350
1B2
  3
PageSettings/OffsetY
350
1B3
  3
PageSettings/PageOrientation
350
1B4
  3
PageSettings/PaperHeight
350
1B5
  3
PageSettings/PaperWidth
350
1B6
  3
PageSettings/Scale
350
1B7
  3
PageSettings/ShowPaperBorders
350
1B8
  3
PageTagSettings/EnablePageTags
350
1B9
  3
PageTagSettings/TagAlignment
350
1BA
  3
PageTagSettings/TagFont
350
1BB
  3
PageTagSettings/TagPosition
350
1BC
  3
QCADVersion
350
1BD
  3
UnitSettings/PaperUnit
350
1BE
  3
ViewportCenter
350
1BF
  3
ViewportHeight
350
1C0
  3
ViewportWidth
350
1C1
  0
XRECORD
  5
18D
330
18A
100
AcDbXrecord
280
1
1000
White
  0
XRECORD
  5
18E
330
18A
100
AcDbXrecord
280
1
1000
FullColor
  0
XRECORD
  5
18F
330
18A
100
AcDbXrecord
280
1
290
0
  0
XRECORD
  5
190
330
18A
100
AcDbXrecord
280
1
290
1
  0
XRECORD
  5
191
330
18A
100
AcDbXrecord
280
1
290
1
  0
XRECORD
  5
192
330
18A
100
AcDbXrecord
280
1
290
1
  0
XRECORD
  5
193
330
18A
100
AcDbXrecord
280
1
1000
auto
  0
XRECORD
  5
194
330
18A
100
AcDbXrecord
280
1
1000
auto
  0
XRECORD
  5
195
330
18A
100
AcDbXrecord
280
1
1000
auto
  0
XRECORD
  5
196
330
18A
100
AcDbXrecord
280
1
1000
auto
  0
XRECORD
  5
197
330
18A
100
AcDbXrecord
280
1
1000
auto
  0
XRECORD
  5
198
330
18A
100
AcDbXrecord
280
1
1000
auto
  0
XRECORD
  5
199
330
18A
100
AcDbXrecord
280
1
1000
auto
  0
XRECORD
  5
19A
330
18A
100
AcDbXrecord
280
1
1000
auto
  0
XRECORD
  5
19B
330
18A
100
AcDbXrecord
280
1
290
0
  0
XRECORD
  5
19C
330
18A
100
AcDbXrecord
280
1
290
0
  0
XRECORD
  5
19D
330
18A
100
AcDbXrecord
280
1
290
0
  0
XRECORD
  5
19E
330
18A
100
AcDbXrecord
280
1
290
0
  0
XRECORD
  5
19F
330
18A
100
AcDbXrecord
280
1
 90
65537
  0
XRECORD
  5
1A0
330
18A
100
AcDbXrecord
280
1
 90
65537
  0
XRECORD
  5
1A1
330
18A
100
AcDbXrecord
280
1
 90
65537
  0
XRECORD
  5
1A2
330
18A
100
AcDbXrecord
280
1
 90
65537
  0
XRECORD
  5
1A3
330
18A
100
AcDbXrecord
280
1
1000
auto
  0
XRECORD
  5
1A4
330
18A
100
AcDbXrecord
280
1
1000
auto
  0
XRECORD
  5
1A5
330
18A
100
AcDbXrecord
280
1
1000
auto
  0
XRECORD
  5
1A6
330
18A
100
AcDbXrecord
280
1
1000
auto
  0
XRECORD
  5
1A7
330
18A
100
AcDbXrecord
280
1
1000
auto
  0
XRECORD
  5
1A8
330
18A
100
AcDbXrecord
280
1
1000
auto
  0
XRECORD
  5
1A9
330
18A
100
AcDbXrecord
280
1
1000
auto
  0
XRECORD
  5
1AA
330
18A
100
AcDbXrecord
280
1
1000
auto
  0
XRECORD
  5
1AB
330
18A
100
AcDbXrecord
280
1
 90
1
  0
XRECORD
  5
1AC
330
18A
100
AcDbXrecord
280
1
 40
10.0
  0
XRECORD
  5
1AD
330
18A
100
AcDbXrecord
280
1
 40
10.0
  0
XRECORD
  5
1AE
330
18A
100
AcDbXrecord
280
1
 40
10.0
  0
XRECORD
  5
1AF
330
18A
100
AcDbXrecord
280
1
 40
10.0
  0
XRECORD
  5
1B0
330
18A
100
AcDbXrecord
280
1
290
0
  0
XRECORD
  5
1B1
330
18A
100
AcDbXrecord
280
1
 90
1
  0
XRECORD
  5
1B2
330
18A
100
AcDbXrecord
280
1
 40
0.0
  0
XRECORD
  5
1B3
330
18A
100
AcDbXrecord
280
1
 40
0.0
  0
XRECORD
  5
1B4
330
18A
100
AcDbXrecord
280
1
1000
Portrait
  0
XRECORD
  5
1B5
330
18A
100
AcDbXrecord
280
1
 40
297.0
  0
XRECORD
  5
1B6
330
18A
100
AcDbXrecord
280
1
 40
210.0
  0
XRECORD
  5
1B7
330
18A
100
AcDbXrecord
280
1
1000
1:1
  0
XRECORD
  5
1B8
330
18A
100
AcDbXrecord
280
1
290
1
  0
XRECORD
  5
1B9
330
18A
100
AcDbXrecord
280
1
290
0
  0
XRECORD
  5
1BA
330
18A
100
AcDbXrecord
280
1
1000
Inside
  0
XRECORD
  5
1BB
330
18A
100
AcDbXrecord
280
1
1000
Arial,10,-1,5,50,0,0,0,0,0
  0
XRECORD
  5
1BC
330
18A
100
AcDbXrecord
280
1
1000
TopLeft
  0
XRECORD
  5
1BD
330
18A
100
AcDbXrecord
280
1
1000
3.27.6
  0
XRECORD
  5
1BE
330
18A
100
AcDbXrecord
280
1
 90
4
  0
XRECORD
  5
1C0
330
18A
100
AcDbXrecord
280
1
 40
184.6491295483195643
  0
XRECORD
  5
1C1
330
18A
100
AcDbXrecord
280
1
 40
363.5669095964888697
  0
ENDSEC
  0
EOF
